<?xml version="1.0" encoding="UTF-8" standalone="no"?>
<!DOCTYPE svg PUBLIC "-//W3C//DTD SVG 1.1//EN" "http://www.w3.org/Graphics/SVG/1.1/DTD/svg11.dtd">
<!-- Generated by Microsoft Visio, SVG Export Fig 10 CSIP.svg Page-1 -->
<svg xmlns="http://www.w3.org/2000/svg" xmlns:xlink="http://www.w3.org/1999/xlink" xmlns:ev="http://www.w3.org/2001/xml-events"
		xmlns:v="http://schemas.microsoft.com/visio/2003/SVGExtensions/" width="14.6814in" height="6.52099in"
		viewBox="0 0 1057.06 469.511" xml:space="preserve" color-interpolation-filters="sRGB" class="st12">
	<v:documentProperties v:langID="2057" v:metric="true" v:viewMarkup="false"/>

	<style type="text/css">
	<![CDATA[
		.st1 {visibility:visible}
		.st2 {fill:#000000;fill-opacity:0.4;filter:url(#filter_2.6666667461395);stroke:#000000;stroke-linecap:round;stroke-linejoin:round;stroke-opacity:0.4}
		.st3 {fill:#c6d8f0;stroke:#000000;stroke-linecap:round;stroke-linejoin:round;stroke-width:0.24}
		.st4 {fill:#000000;font-family:Arial;font-size:1.00001em;font-weight:bold}
		.st5 {stroke:#000000;stroke-linecap:round;stroke-linejoin:round;stroke-width:2}
		.st6 {stroke:#000000;stroke-linecap:round;stroke-linejoin:round;stroke-width:2.25}
		.st7 {fill:#f9dc53;stroke:#000000;stroke-linecap:round;stroke-linejoin:round;stroke-width:0.24}
		.st8 {fill:#000000;font-family:Arial;font-size:1.00001em;font-style:italic;font-weight:bold}
		.st9 {font-size:1em}
		.st10 {fill:#000000;font-family:Arial;font-size:0.916672em;font-style:italic;font-weight:bold}
		.st11 {fill:#000000;font-family:Arial;font-size:0.916672em;font-weight:bold}
		.st12 {fill:none;fill-rule:evenodd;font-size:12px;overflow:visible;stroke-linecap:square;stroke-miterlimit:3}
	]]>
	</style>

	<defs id="Filters">
		<filter id="filter_2.6666667461395">
			<feGaussianBlur stdDeviation="2.6666667461395"/>
		</filter>
	</defs>
	<g v:mID="0" v:index="1" v:groupContext="foregroundPage">
		<title>Page-1</title>
		<v:pageProperties v:drawingScale="0.0393701" v:pageScale="0.0393701" v:drawingUnits="24" v:shadowOffsetX="8.50394"
				v:shadowOffsetY="-8.50394"/>
		<g id="shape1-1" v:mID="1" v:groupContext="shape" transform="translate(250.03,-439.166)">
			<title>Rectangle.2052</title>
			<desc>IP_577ER_344E_2</desc>
			<v:userDefs>
				<v:ud v:nameU="visVersion" v:val="VT0(11):26"/>
			</v:userDefs>
			<v:textBlock v:margins="rect(4,4,4,4)" v:tabSpace="42.5197"/>
			<v:textRect cx="63.7795" cy="455.338" width="127.56" height="28.3465"/>
			<g id="shadow1-2" v:groupContext="shadow" v:shadowOffsetX="2.12132" v:shadowOffsetY="-2.12132" v:shadowType="1"
					transform="matrix(1,0,0,1,2.12132,2.12132)" class="st1">
				<rect x="0" y="441.165" width="127.559" height="28.3465" class="st2"/>
			</g>
			<rect x="0" y="441.165" width="127.559" height="28.3465" class="st3"/>
			<text x="12.4" y="458.94" class="st4" v:langID="2057"><v:paragraph v:horizAlign="1"/><v:tabList/>IP_577ER_344E_2</text>		</g>
		<g id="shape2-7" v:mID="2" v:groupContext="shape" transform="translate(143.567,-368.291) rotate(-0.0035285)">
			<title>Sheet.2</title>
			<path d="M0 469.51 L140.84 469.51" class="st5"/>
		</g>
		<g id="shape3-10" v:mID="3" v:groupContext="shape" transform="translate(65.7782,-424.993)">
			<title>Sheet.3</title>
			<path d="M0 469.51 L921.26 469.51" class="st6"/>
		</g>
		<g id="shape4-13" v:mID="4" v:groupContext="shape" transform="translate(-21.056,381.133) rotate(-90)">
			<title>Sheet.4</title>
			<path d="M0 469.51 L53.15 469.51" class="st6"/>
		</g>
		<g id="shape5-16" v:mID="5" v:groupContext="shape" transform="translate(-403.733,58.6916) rotate(-90)">
			<title>Sheet.5</title>
			<path d="M0 469.51 L14.17 469.51" class="st6"/>
		</g>
		<g id="shape6-19" v:mID="6" v:groupContext="shape" transform="translate(79.9515,-326.017)">
			<title>Rectangle.2057</title>
			<desc>descriptive</desc>
			<v:userDefs>
				<v:ud v:nameU="visVersion" v:val="VT0(11):26"/>
			</v:userDefs>
			<v:textBlock v:margins="rect(4,4,4,4)" v:tabSpace="42.5197"/>
			<v:textRect cx="63.7795" cy="455.343" width="127.56" height="28.3378"/>
			<g id="shadow6-20" v:groupContext="shadow" v:shadowOffsetX="2.12132" v:shadowOffsetY="-2.12132" v:shadowType="1"
					transform="matrix(1,0,0,1,2.12132,2.12132)" class="st1">
				<rect x="0" y="441.174" width="127.559" height="28.3378" class="st2"/>
			</g>
			<rect x="0" y="441.174" width="127.559" height="28.3378" class="st3"/>
			<text x="32.1" y="458.94" class="st4" v:langID="2057"><v:paragraph v:horizAlign="1"/><v:tabList/>descriptive</text>		</g>
		<g id="shape7-25" v:mID="7" v:groupContext="shape" transform="translate(220.792,-326.017)">
			<title>Rectangle.2058</title>
			<desc>preservation</desc>
			<v:userDefs>
				<v:ud v:nameU="visVersion" v:val="VT0(11):26"/>
			</v:userDefs>
			<v:textBlock v:margins="rect(4,4,4,4)" v:tabSpace="42.5197"/>
			<v:textRect cx="63.7795" cy="455.338" width="127.56" height="28.3465"/>
			<g id="shadow7-26" v:groupContext="shadow" v:shadowOffsetX="2.12132" v:shadowOffsetY="-2.12132" v:shadowType="1"
					transform="matrix(1,0,0,1,2.12132,2.12132)" class="st1">
				<rect x="0" y="441.165" width="127.559" height="28.3465" class="st2"/>
			</g>
			<rect x="0" y="441.165" width="127.559" height="28.3465" class="st3"/>
			<text x="27.76" y="458.94" class="st4" v:langID="2057"><v:paragraph v:horizAlign="1"/><v:tabList/>preservation</text>		</g>
		<g id="shape8-31" v:mID="8" v:groupContext="shape" transform="translate(753.926,96.6614) rotate(89.4448)">
			<title>Sheet.8</title>
			<path d="M0 469.51 L13.94 469.51" class="st5"/>
		</g>
		<g id="shape9-34" v:mID="9" v:groupContext="shape" transform="translate(462.629,-382.473)">
			<title>Rectangle.2060</title>
			<desc>representations</desc>
			<v:userDefs>
				<v:ud v:nameU="visVersion" v:val="VT0(11):26"/>
			</v:userDefs>
			<v:textBlock v:margins="rect(4,4,4,4)" v:tabSpace="42.5197"/>
			<v:textRect cx="63.7795" cy="455.338" width="127.56" height="28.3465"/>
			<g id="shadow9-35" v:groupContext="shadow" v:shadowOffsetX="2.12132" v:shadowOffsetY="-2.12132" v:shadowType="1"
					transform="matrix(1,0,0,1,2.12132,2.12132)" class="st1">
				<rect x="0" y="441.165" width="127.559" height="28.3465" class="st2"/>
			</g>
			<rect x="0" y="441.165" width="127.559" height="28.3465" class="st3"/>
			<text x="18.76" y="458.94" class="st4" v:langID="2057"><v:paragraph v:horizAlign="1"/><v:tabList/>representations</text>		</g>
		<g id="shape10-40" v:mID="10" v:groupContext="shape" transform="translate(56.8967,58.6916) rotate(-90)">
			<title>Sheet.10</title>
			<path d="M0 469.51 L14.17 469.51" class="st6"/>
		</g>
		<g id="shape11-43" v:mID="11" v:groupContext="shape" transform="translate(1.99869,-382.473)">
			<title>Rectangle.2062</title>
			<desc>METS.xml</desc>
			<v:userDefs>
				<v:ud v:nameU="visVersion" v:val="VT0(11):26"/>
			</v:userDefs>
			<v:textBlock v:margins="rect(4,4,4,4)" v:tabSpace="42.5197"/>
			<v:textRect cx="63.7795" cy="455.338" width="127.56" height="28.3465"/>
			<g id="shadow11-44" v:groupContext="shadow" v:shadowOffsetX="2.12132" v:shadowOffsetY="-2.12132" v:shadowType="1"
					transform="matrix(1,0,0,1,2.12132,2.12132)" class="st1">
				<rect x="0" y="441.165" width="127.559" height="28.3465" class="st2"/>
			</g>
			<rect x="0" y="441.165" width="127.559" height="28.3465" class="st7"/>
			<text x="35.11" y="458.94" class="st4" v:langID="2057"><v:paragraph v:horizAlign="1"/><v:tabList/>METS.xml</text>		</g>
		<g id="shape12-49" v:mID="12" v:groupContext="shape" transform="translate(150.818,-382.473)">
			<title>Rectangle.2063</title>
			<desc>metadata</desc>
			<v:userDefs>
				<v:ud v:nameU="visVersion" v:val="VT0(11):26"/>
			</v:userDefs>
			<v:textBlock v:margins="rect(4,4,4,4)" v:tabSpace="42.5197"/>
			<v:textRect cx="63.7795" cy="455.338" width="127.56" height="28.3465"/>
			<g id="shadow12-50" v:groupContext="shadow" v:shadowOffsetX="2.12132" v:shadowOffsetY="-2.12132" v:shadowType="1"
					transform="matrix(1,0,0,1,2.12132,2.12132)" class="st1">
				<rect x="0" y="441.165" width="127.559" height="28.3465" class="st2"/>
			</g>
			<rect x="0" y="441.165" width="127.559" height="28.3465" class="st3"/>
			<text x="37.44" y="458.94" class="st4" v:langID="2057"><v:paragraph v:horizAlign="1"/><v:tabList/>metadata</text>		</g>
		<g id="shape13-55" v:mID="13" v:groupContext="shape" transform="translate(-228.717,210.794) rotate(-90)">
			<title>Sheet.13</title>
			<path d="M0 469.51 L67.3 469.51" class="st6"/>
		</g>
		<g id="shape14-58" v:mID="14" v:groupContext="shape" transform="translate(258.534,641.589) rotate(180)">
			<title>Sheet.14</title>
			<path d="M0 469.51 L17.74 469.51" class="st6"/>
		</g>
		<g id="shape15-61" v:mID="15" v:groupContext="shape" transform="translate(-369.157,208.62) rotate(-89.8128)">
			<title>Sheet.15</title>
			<path d="M0 469.51 L66.66 469.51" class="st6"/>
		</g>
		<g id="shape16-64" v:mID="16" v:groupContext="shape" transform="translate(-254.481,111.7) rotate(-91.2795)">
			<title>Sheet.16</title>
			<path d="M0 469.51 L14.18 469.51" class="st6"/>
		</g>
		<g id="shape17-67" v:mID="17" v:groupContext="shape" transform="translate(-254.914,58.6916) rotate(-90)">
			<title>Sheet.17</title>
			<path d="M0 469.51 L14.17 469.51" class="st6"/>
		</g>
		<g id="shape18-70" v:mID="18" v:groupContext="shape" transform="translate(116.802,-283.261)">
			<title>Rectangle.2069</title>
			<desc>EAD.xml</desc>
			<v:userDefs>
				<v:ud v:nameU="visVersion" v:val="VT0(11):26"/>
			</v:userDefs>
			<v:textBlock v:margins="rect(4,4,4,4)" v:tabSpace="42.5197"/>
			<v:textRect cx="45.3543" cy="455.338" width="90.71" height="28.3465"/>
			<g id="shadow18-71" v:groupContext="shadow" v:shadowOffsetX="2.12132" v:shadowOffsetY="-2.12132" v:shadowType="1"
					transform="matrix(1,0,0,1,2.12132,2.12132)" class="st1">
				<rect x="0" y="441.165" width="90.7087" height="28.3465" class="st2"/>
			</g>
			<rect x="0" y="441.165" width="90.7087" height="28.3465" class="st7"/>
			<text x="20.68" y="458.94" class="st8" v:langID="2057"><v:paragraph v:horizAlign="1"/><v:tabList/>EAD.xml</text>		</g>
		<g id="shape19-76" v:mID="19" v:groupContext="shape" transform="translate(118.148,641.587) rotate(179.836)">
			<title>Sheet.19</title>
			<path d="M0 469.51 L16.45 469.51" class="st6"/>
		</g>
		<g id="shape20-79" v:mID="20" v:groupContext="shape" transform="translate(258.534,-283.261)">
			<title>Rectangle.2071</title>
			<desc>PREMIS1.xml</desc>
			<v:userDefs>
				<v:ud v:nameU="visVersion" v:val="VT0(11):26"/>
			</v:userDefs>
			<v:textBlock v:margins="rect(4,4,4,4)" v:tabSpace="42.5197"/>
			<v:textRect cx="45.3543" cy="455.338" width="90.71" height="28.3465"/>
			<g id="shadow20-80" v:groupContext="shadow" v:shadowOffsetX="2.12132" v:shadowOffsetY="-2.12132" v:shadowType="1"
					transform="matrix(1,0,0,1,2.12132,2.12132)" class="st1">
				<rect x="0" y="441.165" width="90.7087" height="28.3465" class="st2"/>
			</g>
			<rect x="0" y="441.165" width="90.7087" height="28.3465" class="st7"/>
			<text x="7.01" y="458.94" class="st8" v:langID="2057"><v:paragraph v:horizAlign="1"/><v:tabList/>PREMIS1.xml</text>		</g>
		<g id="shape21-85" v:mID="21" v:groupContext="shape" transform="translate(613.085,96.6701) rotate(89.4448)">
			<title>Sheet.21</title>
			<path d="M0 469.51 L13.94 469.51" class="st5"/>
		</g>
		<g id="shape22-88" v:mID="22" v:groupContext="shape" transform="translate(455.385,-368.291) rotate(-0.00262898)">
			<title>Sheet.22</title>
			<path d="M0 469.51 L189.03 469.51" class="st5"/>
		</g>
		<g id="shape23-91" v:mID="23" v:groupContext="shape" transform="translate(391.762,-326.017)">
			<title>Rectangle.2074</title>
			<desc>representationID</desc>
			<v:userDefs>
				<v:ud v:nameU="visVersion" v:val="VT0(11):26"/>
			</v:userDefs>
			<v:textBlock v:margins="rect(4,4,4,4)" v:tabSpace="42.5197"/>
			<v:textRect cx="63.7795" cy="455.343" width="127.56" height="28.3378"/>
			<g id="shadow23-92" v:groupContext="shadow" v:shadowOffsetX="2.12132" v:shadowOffsetY="-2.12132" v:shadowType="1"
					transform="matrix(1,0,0,1,2.12132,2.12132)" class="st1">
				<rect x="0" y="441.174" width="127.559" height="28.3378" class="st2"/>
			</g>
			<rect x="0" y="441.174" width="127.559" height="28.3378" class="st3"/>
			<text x="18.76" y="458.94" class="st4" v:langID="2057"><v:paragraph v:horizAlign="1"/><v:tabList/>representationID</text>		</g>
		<g id="shape24-97" v:mID="24" v:groupContext="shape" transform="translate(580.792,-326.017)">
			<title>Rectangle.2075</title>
			<desc>representationID</desc>
			<v:userDefs>
				<v:ud v:nameU="visVersion" v:val="VT0(11):26"/>
			</v:userDefs>
			<v:textBlock v:margins="rect(4,4,4,4)" v:tabSpace="42.5197"/>
			<v:textRect cx="63.7795" cy="455.338" width="127.56" height="28.3465"/>
			<g id="shadow24-98" v:groupContext="shadow" v:shadowOffsetX="2.12132" v:shadowOffsetY="-2.12132" v:shadowType="1"
					transform="matrix(1,0,0,1,2.12132,2.12132)" class="st1">
				<rect x="0" y="441.165" width="127.559" height="28.3465" class="st2"/>
			</g>
			<rect x="0" y="441.165" width="127.559" height="28.3465" class="st3"/>
			<text x="18.76" y="458.94" class="st4" v:langID="2057"><v:paragraph v:horizAlign="1"/><v:tabList/>representationID</text>		</g>
		<g id="shape25-103" v:mID="25" v:groupContext="shape" transform="translate(1113.93,96.6614) rotate(89.4448)">
			<title>Sheet.25</title>
			<path d="M0 469.51 L13.94 469.51" class="st5"/>
		</g>
		<g id="shape26-106" v:mID="26" v:groupContext="shape" transform="translate(618.534,783.321) rotate(180)">
			<title>Sheet.26</title>
			<path d="M0 469.51 L17.74 469.51" class="st6"/>
		</g>
		<g id="shape27-109" v:mID="27" v:groupContext="shape" transform="translate(57.3305,111.701) rotate(-91.2797)">
			<title>Sheet.27</title>
			<path d="M0 469.51 L14.18 469.51" class="st6"/>
		</g>
		<g id="shape28-112" v:mID="28" v:groupContext="shape" transform="translate(428.613,-141.529)">
			<title>Rectangle.2079</title>
			<desc>data</desc>
			<v:userDefs>
				<v:ud v:nameU="visVersion" v:val="VT0(11):26"/>
			</v:userDefs>
			<v:textBlock v:margins="rect(4,4,4,4)" v:tabSpace="42.5197"/>
			<v:textRect cx="45.3543" cy="455.338" width="90.71" height="28.3465"/>
			<g id="shadow28-113" v:groupContext="shadow" v:shadowOffsetX="2.12132" v:shadowOffsetY="-2.12132" v:shadowType="1"
					transform="matrix(1,0,0,1,2.12132,2.12132)" class="st1">
				<rect x="0" y="441.165" width="90.7087" height="28.3465" class="st2"/>
			</g>
			<rect x="0" y="441.165" width="90.7087" height="28.3465" class="st3"/>
			<text x="33.02" y="458.94" class="st4" v:langID="2057"><v:paragraph v:horizAlign="1"/><v:tabList/>data</text>		</g>
		<g id="shape29-118" v:mID="29" v:groupContext="shape" transform="translate(428.334,783.321) rotate(-179.966)">
			<title>Sheet.29</title>
			<path d="M0 469.51 L16.45 469.51" class="st6"/>
		</g>
		<g id="shape30-121" v:mID="30" v:groupContext="shape" transform="translate(618.534,-141.529)">
			<title>Rectangle.2081</title>
			<desc>data</desc>
			<v:userDefs>
				<v:ud v:nameU="visVersion" v:val="VT0(11):26"/>
			</v:userDefs>
			<v:textBlock v:margins="rect(4,4,4,4)" v:tabSpace="42.5197"/>
			<v:textRect cx="45.3543" cy="455.338" width="90.71" height="28.3465"/>
			<g id="shadow30-122" v:groupContext="shadow" v:shadowOffsetX="2.12132" v:shadowOffsetY="-2.12132" v:shadowType="1"
					transform="matrix(1,0,0,1,2.12132,2.12132)" class="st1">
				<rect x="0" y="441.165" width="90.7087" height="28.3465" class="st2"/>
			</g>
			<rect x="0" y="441.165" width="90.7087" height="28.3465" class="st3"/>
			<text x="33.02" y="458.94" class="st4" v:langID="2057"><v:paragraph v:horizAlign="1"/><v:tabList/>data</text>		</g>
		<g id="shape31-127" v:mID="31" v:groupContext="shape" transform="translate(924.896,96.6701) rotate(89.4448)">
			<title>Sheet.31</title>
			<path d="M0 469.51 L13.94 469.51" class="st5"/>
		</g>
		<g id="shape32-130" v:mID="32" v:groupContext="shape" transform="translate(462.629,-109.639)">
			<title>Rectangle.2083</title>
			<desc>File1.doc</desc>
			<v:userDefs>
				<v:ud v:nameU="visVersion" v:val="VT0(11):26"/>
			</v:userDefs>
			<v:textBlock v:margins="rect(4,4,4,4)" v:tabSpace="42.5197"/>
			<v:textRect cx="42.5197" cy="458.882" width="85.04" height="21.2598"/>
			<g id="shadow32-131" v:groupContext="shadow" v:shadowOffsetX="2.12132" v:shadowOffsetY="-2.12132" v:shadowType="1"
					transform="matrix(1,0,0,1,2.12132,2.12132)" class="st1">
				<rect x="0" y="448.252" width="85.0394" height="21.2598" class="st2"/>
			</g>
			<rect x="0" y="448.252" width="85.0394" height="21.2598" class="st7"/>
			<text x="16.51" y="462.48" class="st8" v:langID="2057"><v:paragraph v:horizAlign="1"/><v:tabList/>File1.doc</text>		</g>
		<g id="shape33-136" v:mID="33" v:groupContext="shape" transform="translate(462.629,-77.749)">
			<title>Rectangle.2084</title>
			<desc>File2.doc</desc>
			<v:userDefs>
				<v:ud v:nameU="visVersion" v:val="VT0(11):26"/>
			</v:userDefs>
			<v:textBlock v:margins="rect(4,4,4,4)" v:tabSpace="42.5197"/>
			<v:textRect cx="42.5197" cy="458.882" width="85.04" height="21.2598"/>
			<g id="shadow33-137" v:groupContext="shadow" v:shadowOffsetX="2.12132" v:shadowOffsetY="-2.12132" v:shadowType="1"
					transform="matrix(1,0,0,1,2.12132,2.12132)" class="st1">
				<rect x="0" y="448.252" width="85.0394" height="21.2598" class="st2"/>
			</g>
			<rect x="0" y="448.252" width="85.0394" height="21.2598" class="st7"/>
			<text x="16.51" y="462.48" class="st8" v:langID="2057"><v:paragraph v:horizAlign="1"/><v:tabList/>File2.doc</text>		</g>
		<g id="shape34-142" v:mID="34" v:groupContext="shape" transform="translate(462.629,850.644) rotate(180)">
			<title>Sheet.34</title>
			<path d="M0 469.51 L14.17 469.51" class="st6"/>
		</g>
		<g id="shape35-145" v:mID="35" v:groupContext="shape" transform="translate(462.629,818.754) rotate(180)">
			<title>Sheet.35</title>
			<path d="M0 469.51 L14.17 469.51" class="st6"/>
		</g>
		<g id="shape36-148" v:mID="36" v:groupContext="shape" transform="translate(264.819,679.577) rotate(179.233)">
			<title>Sheet.36</title>
			<path d="M0 469.51 L17.74 469.51" class="st6"/>
		</g>
		<g id="shape37-151" v:mID="37" v:groupContext="shape" transform="translate(116.802,-245.231)">
			<title>Rectangle.2088</title>
			<desc>DC.xml</desc>
			<v:userDefs>
				<v:ud v:nameU="visVersion" v:val="VT0(11):26"/>
			</v:userDefs>
			<v:textBlock v:margins="rect(4,4,4,4)" v:tabSpace="42.5197"/>
			<v:textRect cx="45.3543" cy="455.338" width="90.71" height="28.3465"/>
			<g id="shadow37-152" v:groupContext="shadow" v:shadowOffsetX="2.12132" v:shadowOffsetY="-2.12132" v:shadowType="1"
					transform="matrix(1,0,0,1,2.12132,2.12132)" class="st1">
				<rect x="0" y="441.165" width="90.7087" height="28.3465" class="st2"/>
			</g>
			<rect x="0" y="441.165" width="90.7087" height="28.3465" class="st7"/>
			<text x="24.68" y="458.94" class="st8" v:langID="2057"><v:paragraph v:horizAlign="1"/><v:tabList/>DC.xml</text>		</g>
		<g id="shape38-157" v:mID="38" v:groupContext="shape" transform="translate(118.148,679.617) rotate(179.836)">
			<title>Sheet.38</title>
			<path d="M0 469.51 L16.45 469.51" class="st6"/>
		</g>
		<g id="shape39-160" v:mID="39" v:groupContext="shape" transform="translate(258.534,-245.231)">
			<title>Rectangle.2090</title>
			<desc>PREMIS2.xml</desc>
			<v:userDefs>
				<v:ud v:nameU="visVersion" v:val="VT0(11):26"/>
			</v:userDefs>
			<v:textBlock v:margins="rect(4,4,4,4)" v:tabSpace="42.5197"/>
			<v:textRect cx="45.3543" cy="455.338" width="90.71" height="28.3465"/>
			<g id="shadow39-161" v:groupContext="shadow" v:shadowOffsetX="2.12132" v:shadowOffsetY="-2.12132" v:shadowType="1"
					transform="matrix(1,0,0,1,2.12132,2.12132)" class="st1">
				<rect x="0" y="441.165" width="90.7087" height="28.3465" class="st2"/>
			</g>
			<rect x="0" y="441.165" width="90.7087" height="28.3465" class="st7"/>
			<text x="7.01" y="458.94" class="st8" v:langID="2057"><v:paragraph v:horizAlign="1"/><v:tabList/>PREMIS2.xml</text>		</g>
		<g id="shape40-166" v:mID="40" v:groupContext="shape" transform="translate(-155.702,44.5183) rotate(-90)">
			<title>Sheet.40</title>
			<path d="M0 469.51 L14.17 469.51" class="st6"/>
		</g>
		<g id="shape41-169" v:mID="41" v:groupContext="shape" transform="translate(168.865,381.133) rotate(-90)">
			<title>Sheet.41</title>
			<path d="M0 469.51 L53.15 469.51" class="st6"/>
		</g>
		<g id="shape42-172" v:mID="42" v:groupContext="shape" transform="translate(652.55,-109.639)">
			<title>Rectangle.2094</title>
			<desc>File1.pdf</desc>
			<v:userDefs>
				<v:ud v:nameU="visVersion" v:val="VT0(11):26"/>
			</v:userDefs>
			<v:textBlock v:margins="rect(4,4,4,4)" v:tabSpace="42.5197"/>
			<v:textRect cx="42.5197" cy="458.882" width="85.04" height="21.2598"/>
			<g id="shadow42-173" v:groupContext="shadow" v:shadowOffsetX="2.12132" v:shadowOffsetY="-2.12132" v:shadowType="1"
					transform="matrix(1,0,0,1,2.12132,2.12132)" class="st1">
				<rect x="0" y="448.252" width="85.0394" height="21.2598" class="st2"/>
			</g>
			<rect x="0" y="448.252" width="85.0394" height="21.2598" class="st7"/>
			<text x="17.85" y="462.48" class="st8" v:langID="2057"><v:paragraph v:horizAlign="1"/><v:tabList/>File1.pdf</text>		</g>
		<g id="shape43-178" v:mID="43" v:groupContext="shape" transform="translate(652.55,-77.749)">
			<title>Rectangle.2095</title>
			<desc>File2.pdf</desc>
			<v:userDefs>
				<v:ud v:nameU="visVersion" v:val="VT0(11):26"/>
			</v:userDefs>
			<v:textBlock v:margins="rect(4,4,4,4)" v:tabSpace="42.5197"/>
			<v:textRect cx="42.5197" cy="458.882" width="85.04" height="21.2598"/>
			<g id="shadow43-179" v:groupContext="shadow" v:shadowOffsetX="2.12132" v:shadowOffsetY="-2.12132" v:shadowType="1"
					transform="matrix(1,0,0,1,2.12132,2.12132)" class="st1">
				<rect x="0" y="448.252" width="85.0394" height="21.2598" class="st2"/>
			</g>
			<rect x="0" y="448.252" width="85.0394" height="21.2598" class="st7"/>
			<text x="17.85" y="462.48" class="st8" v:langID="2057"><v:paragraph v:horizAlign="1"/><v:tabList/>File2.pdf</text>		</g>
		<g id="shape44-184" v:mID="44" v:groupContext="shape" transform="translate(652.55,850.644) rotate(180)">
			<title>Sheet.44</title>
			<path d="M0 469.51 L14.17 469.51" class="st6"/>
		</g>
		<g id="shape45-187" v:mID="45" v:groupContext="shape" transform="translate(652.55,818.754) rotate(180)">
			<title>Sheet.45</title>
			<path d="M0 469.51 L14.17 469.51" class="st6"/>
		</g>
		<g id="shape46-190" v:mID="46" v:groupContext="shape" transform="translate(368.708,58.6916) rotate(-90)">
			<title>Sheet.46</title>
			<path d="M0 469.51 L14.17 469.51" class="st6"/>
		</g>
		<g id="shape47-193" v:mID="47" v:groupContext="shape" transform="translate(774.44,-382.473)">
			<title>Rectangle.2109</title>
			<desc>schemas</desc>
			<v:userDefs>
				<v:ud v:nameU="visVersion" v:val="VT0(11):26"/>
			</v:userDefs>
			<v:textBlock v:margins="rect(4,4,4,4)" v:tabSpace="42.5197"/>
			<v:textRect cx="63.7795" cy="455.338" width="127.56" height="28.3465"/>
			<g id="shadow47-194" v:groupContext="shadow" v:shadowOffsetX="2.12132" v:shadowOffsetY="-2.12132" v:shadowType="1"
					transform="matrix(1,0,0,1,2.12132,2.12132)" class="st1">
				<rect x="0" y="441.165" width="127.559" height="28.3465" class="st2"/>
			</g>
			<rect x="0" y="441.165" width="127.559" height="28.3465" class="st3"/>
			<text x="38.09" y="458.94" class="st4" v:langID="2057"><v:paragraph v:horizAlign="1"/><v:tabList/>schemas</text>		</g>
		<g id="shape48-199" v:mID="48" v:groupContext="shape" transform="translate(923.259,-382.473)">
			<title>Rectangle.2110</title>
			<desc>documentation</desc>
			<v:userDefs>
				<v:ud v:nameU="visVersion" v:val="VT0(11):26"/>
			</v:userDefs>
			<v:textBlock v:margins="rect(4,4,4,4)" v:tabSpace="42.5197"/>
			<v:textRect cx="63.7795" cy="455.338" width="127.56" height="28.3465"/>
			<g id="shadow48-200" v:groupContext="shadow" v:shadowOffsetX="2.12132" v:shadowOffsetY="-2.12132" v:shadowType="1"
					transform="matrix(1,0,0,1,2.12132,2.12132)" class="st1">
				<rect x="0" y="441.165" width="127.559" height="28.3465" class="st2"/>
			</g>
			<rect x="0" y="441.165" width="127.559" height="28.3465" class="st3"/>
			<text x="20.78" y="458.94" class="st4" v:langID="2057"><v:paragraph v:horizAlign="1"/><v:tabList/>documentation</text>		</g>
		<g id="shape49-205" v:mID="49" v:groupContext="shape" transform="translate(517.527,58.6916) rotate(-90)">
			<title>Sheet.49</title>
			<path d="M0 469.51 L14.17 469.51" class="st6"/>
		</g>
		<g id="shape50-208" v:mID="50" v:groupContext="shape" transform="translate(475.007,157.904) rotate(-90)">
			<title>Sheet.50</title>
			<path d="M0 469.51 L70.87 469.51" class="st6"/>
		</g>
		<g id="shape51-211" v:mID="51" v:groupContext="shape" transform="translate(967.525,584.813) rotate(178.922)">
			<title>Sheet.51</title>
			<path d="M0 469.51 L12.56 469.51" class="st6"/>
		</g>
		<g id="shape52-214" v:mID="52" v:groupContext="shape" transform="translate(958.692,-339.954)">
			<title>Rectangle.2114</title>
			<desc>UserManual .pdf</desc>
			<v:userDefs>
				<v:ud v:nameU="visVersion" v:val="VT0(11):26"/>
			</v:userDefs>
			<v:textBlock v:margins="rect(4,4,4,4)" v:tabSpace="42.5197"/>
			<v:textRect cx="45.3543" cy="455.338" width="90.71" height="28.3465"/>
			<g id="shadow52-215" v:groupContext="shadow" v:shadowOffsetX="2.12132" v:shadowOffsetY="-2.12132" v:shadowType="1"
					transform="matrix(1,0,0,1,2.12132,2.12132)" class="st1">
				<rect x="0" y="441.165" width="90.7087" height="28.3465" class="st2"/>
			</g>
			<rect x="0" y="441.165" width="90.7087" height="28.3465" class="st7"/>
			<text x="11.34" y="451.74" class="st4" v:langID="2057"><v:paragraph v:horizAlign="1"/><v:tabList/>UserManual <tspan
						x="34.36" dy="1.2em" class="st9">.</tspan>pdf</text>		</g>
		<g id="shape53-221" v:mID="53" v:groupContext="shape" transform="translate(958.692,627.416) rotate(180)">
			<title>Sheet.53</title>
			<path d="M0 469.51 L14.17 469.51" class="st6"/>
		</g>
		<g id="shape54-224" v:mID="54" v:groupContext="shape" transform="translate(958.692,-297.434)">
			<title>Rectangle.2116</title>
			<desc>Submission Process.pdf</desc>
			<v:userDefs>
				<v:ud v:nameU="visVersion" v:val="VT0(11):26"/>
			</v:userDefs>
			<v:textBlock v:margins="rect(4,4,4,4)" v:tabSpace="42.5197"/>
			<v:textRect cx="45.3543" cy="455.338" width="90.71" height="28.3465"/>
			<g id="shadow54-225" v:groupContext="shadow" v:shadowOffsetX="2.12132" v:shadowOffsetY="-2.12132" v:shadowType="1"
					transform="matrix(1,0,0,1,2.12132,2.12132)" class="st1">
				<rect x="0" y="441.165" width="90.7087" height="28.3465" class="st2"/>
			</g>
			<rect x="0" y="441.165" width="90.7087" height="28.3465" class="st7"/>
			<text x="11.35" y="451.74" class="st4" v:langID="2057"><v:paragraph v:horizAlign="1"/><v:tabList/>Submission <tspan
						x="11.01" dy="1.2em" class="st9">Process</tspan>.pdf</text>		</g>
		<g id="shape55-231" v:mID="55" v:groupContext="shape" transform="translate(327.605,200.424) rotate(-90)">
			<title>Sheet.55</title>
			<path d="M0 469.51 L113.39 469.51" class="st6"/>
		</g>
		<g id="shape56-234" v:mID="56" v:groupContext="shape" transform="translate(868.313,584.813) rotate(178.922)">
			<title>Sheet.56</title>
			<path d="M0 469.51 L12.56 469.51" class="st6"/>
		</g>
		<g id="shape57-237" v:mID="57" v:groupContext="shape" transform="translate(811.29,-339.954)">
			<title>Rectangle.2119</title>
			<desc>EAD.xsd</desc>
			<v:userDefs>
				<v:ud v:nameU="visVersion" v:val="VT0(11):26"/>
			</v:userDefs>
			<v:textBlock v:margins="rect(4,4,4,4)" v:tabSpace="42.5197"/>
			<v:textRect cx="45.3543" cy="455.338" width="90.71" height="28.3465"/>
			<g id="shadow57-238" v:groupContext="shadow" v:shadowOffsetX="2.12132" v:shadowOffsetY="-2.12132" v:shadowType="1"
					transform="matrix(1,0,0,1,2.12132,2.12132)" class="st1">
				<rect x="0" y="441.165" width="90.7087" height="28.3465" class="st2"/>
			</g>
			<rect x="0" y="441.165" width="90.7087" height="28.3465" class="st7"/>
			<text x="20.68" y="458.94" class="st4" v:langID="2057"><v:paragraph v:horizAlign="1"/><v:tabList/>EAD.xsd</text>		</g>
		<g id="shape58-243" v:mID="58" v:groupContext="shape" transform="translate(859.479,627.416) rotate(180)">
			<title>Sheet.58</title>
			<path d="M0 469.51 L14.17 469.51" class="st6"/>
		</g>
		<g id="shape59-246" v:mID="59" v:groupContext="shape" transform="translate(811.29,-297.434)">
			<title>Rectangle.2121</title>
			<desc>DC.xsd</desc>
			<v:userDefs>
				<v:ud v:nameU="visVersion" v:val="VT0(11):26"/>
			</v:userDefs>
			<v:textBlock v:margins="rect(4,4,4,4)" v:tabSpace="42.5197"/>
			<v:textRect cx="45.3543" cy="455.338" width="90.71" height="28.3465"/>
			<g id="shadow59-247" v:groupContext="shadow" v:shadowOffsetX="2.12132" v:shadowOffsetY="-2.12132" v:shadowType="1"
					transform="matrix(1,0,0,1,2.12132,2.12132)" class="st1">
				<rect x="0" y="441.165" width="90.7087" height="28.3465" class="st2"/>
			</g>
			<rect x="0" y="441.165" width="90.7087" height="28.3465" class="st7"/>
			<text x="24.68" y="458.94" class="st4" v:langID="2057"><v:paragraph v:horizAlign="1"/><v:tabList/>DC.xsd</text>		</g>
		<g id="shape60-252" v:mID="60" v:groupContext="shape" transform="translate(859.479,669.935) rotate(180)">
			<title>Sheet.60</title>
			<path d="M0 469.51 L14.17 469.51" class="st6"/>
		</g>
		<g id="shape61-255" v:mID="61" v:groupContext="shape" transform="translate(811.29,-254.914)">
			<title>Rectangle.2123</title>
			<desc>PREMIS.xsd</desc>
			<v:userDefs>
				<v:ud v:nameU="visVersion" v:val="VT0(11):26"/>
			</v:userDefs>
			<v:textBlock v:margins="rect(4,4,4,4)" v:tabSpace="42.5197"/>
			<v:textRect cx="45.3543" cy="455.338" width="90.71" height="28.3465"/>
			<g id="shadow61-256" v:groupContext="shadow" v:shadowOffsetX="2.12132" v:shadowOffsetY="-2.12132" v:shadowType="1"
					transform="matrix(1,0,0,1,2.12132,2.12132)" class="st1">
				<rect x="0" y="441.165" width="90.7087" height="28.3465" class="st2"/>
			</g>
			<rect x="0" y="441.165" width="90.7087" height="28.3465" class="st7"/>
			<text x="10.34" y="458.94" class="st4" v:langID="2057"><v:paragraph v:horizAlign="1"/><v:tabList/>PREMIS.xsd</text>		</g>
		<g id="shape62-261" v:mID="62" v:groupContext="shape" transform="translate(14.377,278.377) rotate(-90)">
			<title>Sheet.62</title>
			<path d="M0 469.51 L21.26 469.51" class="st6"/>
		</g>
		<g id="shape63-264" v:mID="63" v:groupContext="shape" transform="translate(498.062,-180.505)">
			<title>Rectangle.2125</title>
			<desc>PREMIS_R1.xml</desc>
			<v:userDefs>
				<v:ud v:nameU="visVersion" v:val="VT0(11):26"/>
			</v:userDefs>
			<v:textBlock v:margins="rect(4,4,4,4)" v:tabSpace="42.5197"/>
			<v:textRect cx="47.4803" cy="458.882" width="94.97" height="21.2598"/>
			<g id="shadow63-265" v:groupContext="shadow" v:shadowOffsetX="2.12132" v:shadowOffsetY="-2.12132" v:shadowType="1"
					transform="matrix(1,0,0,1,2.12132,2.12132)" class="st1">
				<rect x="0" y="448.252" width="94.9606" height="21.2598" class="st2"/>
			</g>
			<rect x="0" y="448.252" width="94.9606" height="21.2598" class="st7"/>
			<text x="5.3" y="462.18" class="st10" v:langID="2057"><v:paragraph v:horizAlign="1"/><v:tabList/>PREMIS_R1.xml</text>		</g>
		<g id="shape64-270" v:mID="64" v:groupContext="shape" transform="translate(462.629,-212.395)">
			<title>Rectangle.2126</title>
			<desc>preservation</desc>
			<v:userDefs>
				<v:ud v:nameU="visVersion" v:val="VT0(11):26"/>
			</v:userDefs>
			<v:textBlock v:margins="rect(4,4,4,4)" v:tabSpace="42.5197"/>
			<v:textRect cx="42.5197" cy="458.882" width="85.04" height="21.2598"/>
			<g id="shadow64-271" v:groupContext="shadow" v:shadowOffsetX="2.12132" v:shadowOffsetY="-2.12132" v:shadowType="1"
					transform="matrix(1,0,0,1,2.12132,2.12132)" class="st1">
				<rect x="0" y="448.252" width="85.0394" height="21.2598" class="st2"/>
			</g>
			<rect x="0" y="448.252" width="85.0394" height="21.2598" class="st3"/>
			<text x="6.5" y="462.48" class="st8" v:langID="2057"><v:paragraph v:horizAlign="1"/><v:tabList/>preservation</text>		</g>
		<g id="shape65-276" v:mID="65" v:groupContext="shape" transform="translate(462.629,715.998) rotate(180)">
			<title>Sheet.65</title>
			<path d="M0 469.51 L14.17 469.51" class="st6"/>
		</g>
		<g id="shape66-279" v:mID="66" v:groupContext="shape" transform="translate(498.062,747.888) rotate(180)">
			<title>Sheet.66</title>
			<path d="M0 469.51 L14.17 469.51" class="st6"/>
		</g>
		<g id="shape67-282" v:mID="67" v:groupContext="shape" transform="translate(204.298,278.377) rotate(-90)">
			<title>Sheet.67</title>
			<path d="M0 469.51 L21.26 469.51" class="st6"/>
		</g>
		<g id="shape68-285" v:mID="68" v:groupContext="shape" transform="translate(687.983,-180.505)">
			<title>Rectangle.2130</title>
			<desc>PREMIS_R2.xml</desc>
			<v:userDefs>
				<v:ud v:nameU="visVersion" v:val="VT0(11):26"/>
			</v:userDefs>
			<v:textBlock v:margins="rect(4,4,4,4)" v:tabSpace="42.5197"/>
			<v:textRect cx="46.7717" cy="458.882" width="93.55" height="21.2598"/>
			<g id="shadow68-286" v:groupContext="shadow" v:shadowOffsetX="2.12132" v:shadowOffsetY="-2.12132" v:shadowType="1"
					transform="matrix(1,0,0,1,2.12132,2.12132)" class="st1">
				<rect x="0" y="448.252" width="93.5433" height="21.2598" class="st2"/>
			</g>
			<rect x="0" y="448.252" width="93.5433" height="21.2598" class="st7"/>
			<text x="4.59" y="462.18" class="st10" v:langID="2057"><v:paragraph v:horizAlign="1"/><v:tabList/>PREMIS_R2.xml</text>		</g>
		<g id="shape69-291" v:mID="69" v:groupContext="shape" transform="translate(652.55,-212.395)">
			<title>Rectangle.2131</title>
			<desc>preservation</desc>
			<v:userDefs>
				<v:ud v:nameU="visVersion" v:val="VT0(11):26"/>
			</v:userDefs>
			<v:textBlock v:margins="rect(4,4,4,4)" v:tabSpace="42.5197"/>
			<v:textRect cx="42.5197" cy="458.882" width="85.04" height="21.2598"/>
			<g id="shadow69-292" v:groupContext="shadow" v:shadowOffsetX="2.12132" v:shadowOffsetY="-2.12132" v:shadowType="1"
					transform="matrix(1,0,0,1,2.12132,2.12132)" class="st1">
				<rect x="0" y="448.252" width="85.0394" height="21.2598" class="st2"/>
			</g>
			<rect x="0" y="448.252" width="85.0394" height="21.2598" class="st3"/>
			<text x="6.5" y="462.48" class="st8" v:langID="2057"><v:paragraph v:horizAlign="1"/><v:tabList/>preservation</text>		</g>
		<g id="shape70-297" v:mID="70" v:groupContext="shape" transform="translate(652.55,715.998) rotate(180)">
			<title>Sheet.70</title>
			<path d="M0 469.51 L14.17 469.51" class="st6"/>
		</g>
		<g id="shape71-300" v:mID="71" v:groupContext="shape" transform="translate(687.983,747.888) rotate(180)">
			<title>Sheet.71</title>
			<path d="M0 469.51 L14.17 469.51" class="st6"/>
		</g>
		<g id="shape72-303" v:mID="72" v:groupContext="shape" transform="translate(131.283,417.558) rotate(-90)">
			<title>Sheet.72</title>
			<path d="M0 469.51 L273.83 469.51" class="st6"/>
		</g>
		<g id="shape73-306" v:mID="73" v:groupContext="shape" transform="translate(618.534,641.825) rotate(180)">
			<title>Sheet.73</title>
			<path d="M0 469.51 L17.74 469.51" class="st6"/>
		</g>
		<g id="shape74-309" v:mID="74" v:groupContext="shape" transform="translate(-56.2071,418.778) rotate(-90.1929)">
			<title>Sheet.74</title>
			<path d="M0 469.51 L273.47 469.51" class="st6"/>
		</g>
		<g id="shape75-312" v:mID="75" v:groupContext="shape" transform="translate(428.613,-283.024)">
			<title>Rectangle.2137</title>
			<desc>METS.xml</desc>
			<v:userDefs>
				<v:ud v:nameU="visVersion" v:val="VT0(11):26"/>
			</v:userDefs>
			<v:textBlock v:margins="rect(4,4,4,4)" v:tabSpace="42.5197"/>
			<v:textRect cx="45.3543" cy="455.338" width="90.71" height="28.3465"/>
			<g id="shadow75-313" v:groupContext="shadow" v:shadowOffsetX="2.12132" v:shadowOffsetY="-2.12132" v:shadowType="1"
					transform="matrix(1,0,0,1,2.12132,2.12132)" class="st1">
				<rect x="0" y="441.165" width="90.7087" height="28.3465" class="st2"/>
			</g>
			<rect x="0" y="441.165" width="90.7087" height="28.3465" class="st7"/>
			<text x="16.68" y="458.94" class="st8" v:langID="2057"><v:paragraph v:horizAlign="1"/><v:tabList/>METS.xml</text>		</g>
		<g id="shape76-318" v:mID="76" v:groupContext="shape" transform="translate(429.959,641.823) rotate(179.836)">
			<title>Sheet.76</title>
			<path d="M0 469.51 L16.45 469.51" class="st6"/>
		</g>
		<g id="shape77-321" v:mID="77" v:groupContext="shape" transform="translate(618.534,-283.024)">
			<title>Rectangle.2139</title>
			<desc>METS.xml</desc>
			<v:userDefs>
				<v:ud v:nameU="visVersion" v:val="VT0(11):26"/>
			</v:userDefs>
			<v:textBlock v:margins="rect(4,4,4,4)" v:tabSpace="42.5197"/>
			<v:textRect cx="45.3543" cy="455.338" width="90.71" height="28.3465"/>
			<g id="shadow77-322" v:groupContext="shadow" v:shadowOffsetX="2.12132" v:shadowOffsetY="-2.12132" v:shadowType="1"
					transform="matrix(1,0,0,1,2.12132,2.12132)" class="st1">
				<rect x="0" y="441.165" width="90.7087" height="28.3465" class="st2"/>
			</g>
			<rect x="0" y="441.165" width="90.7087" height="28.3465" class="st7"/>
			<text x="16.68" y="458.94" class="st8" v:langID="2057"><v:paragraph v:horizAlign="1"/><v:tabList/>METS.xml</text>		</g>
		<g id="shape78-327" v:mID="78" v:groupContext="shape" transform="translate(624.819,679.813) rotate(179.233)">
			<title>Sheet.78</title>
			<path d="M0 469.51 L17.74 469.51" class="st6"/>
		</g>
		<g id="shape79-330" v:mID="79" v:groupContext="shape" transform="translate(428.613,-244.994)">
			<title>Rectangle.2141</title>
			<desc>metadata</desc>
			<v:userDefs>
				<v:ud v:nameU="visVersion" v:val="VT0(11):26"/>
			</v:userDefs>
			<v:textBlock v:margins="rect(4,4,4,4)" v:tabSpace="42.5197"/>
			<v:textRect cx="45.3543" cy="455.338" width="90.71" height="28.3465"/>
			<g id="shadow79-331" v:groupContext="shadow" v:shadowOffsetX="2.12132" v:shadowOffsetY="-2.12132" v:shadowType="1"
					transform="matrix(1,0,0,1,2.12132,2.12132)" class="st1">
				<rect x="0" y="441.165" width="90.7087" height="28.3465" class="st2"/>
			</g>
			<rect x="0" y="441.165" width="90.7087" height="28.3465" class="st3"/>
			<text x="19.01" y="458.94" class="st8" v:langID="2057"><v:paragraph v:horizAlign="1"/><v:tabList/>metadata</text>		</g>
		<g id="shape80-336" v:mID="80" v:groupContext="shape" transform="translate(429.959,679.853) rotate(179.836)">
			<title>Sheet.80</title>
			<path d="M0 469.51 L16.45 469.51" class="st6"/>
		</g>
		<g id="shape81-339" v:mID="81" v:groupContext="shape" transform="translate(618.534,-244.994)">
			<title>Rectangle.2143</title>
			<desc>metadata</desc>
			<v:userDefs>
				<v:ud v:nameU="visVersion" v:val="VT0(11):26"/>
			</v:userDefs>
			<v:textBlock v:margins="rect(4,4,4,4)" v:tabSpace="42.5197"/>
			<v:textRect cx="45.3543" cy="455.338" width="90.71" height="28.3465"/>
			<g id="shadow81-340" v:groupContext="shadow" v:shadowOffsetX="2.12132" v:shadowOffsetY="-2.12132" v:shadowType="1"
					transform="matrix(1,0,0,1,2.12132,2.12132)" class="st1">
				<rect x="0" y="441.165" width="90.7087" height="28.3465" class="st2"/>
			</g>
			<rect x="0" y="441.165" width="90.7087" height="28.3465" class="st3"/>
			<text x="19.01" y="458.94" class="st8" v:langID="2057"><v:paragraph v:horizAlign="1"/><v:tabList/>metadata</text>		</g>
		<g id="shape82-345" v:mID="82" v:groupContext="shape" transform="translate(-21.056,245.419) rotate(-90)">
			<title>Sheet.82</title>
			<path d="M0 469.51 L20.9 469.51" class="st6"/>
		</g>
		<g id="shape83-348" v:mID="83" v:groupContext="shape" transform="translate(168.865,245.419) rotate(-90)">
			<title>Sheet.83</title>
			<path d="M0 469.51 L20.9 469.51" class="st6"/>
		</g>
		<g id="shape84-351" v:mID="84" v:groupContext="shape" transform="translate(-19.9181,452.64) rotate(-90)">
			<title>Sheet.84</title>
			<path d="M0 469.51 L21.26 469.51" class="st6"/>
		</g>
		<g id="shape85-354" v:mID="85" v:groupContext="shape" transform="translate(628.39,886.638) rotate(178.936)">
			<title>Sheet.85</title>
			<path d="M0 469.51 L18.88 469.51" class="st6"/>
		</g>
		<g id="shape86-357" v:mID="86" v:groupContext="shape" transform="translate(429.751,-38.1311)">
			<title>Rectangle.2148</title>
			<desc>documentation</desc>
			<v:userDefs>
				<v:ud v:nameU="visVersion" v:val="VT0(11):26"/>
			</v:userDefs>
			<v:textBlock v:margins="rect(4,4,4,4)" v:tabSpace="42.5197"/>
			<v:textRect cx="45.3543" cy="455.338" width="90.71" height="28.3465"/>
			<g id="shadow86-358" v:groupContext="shadow" v:shadowOffsetX="2.12132" v:shadowOffsetY="-2.12132" v:shadowType="1"
					transform="matrix(1,0,0,1,2.12132,2.12132)" class="st1">
				<rect x="0" y="441.165" width="90.7087" height="28.3465" class="st2"/>
			</g>
			<rect x="0" y="441.165" width="90.7087" height="28.3465" class="st3"/>
			<text x="5.94" y="458.64" class="st11" v:langID="2057"><v:paragraph v:horizAlign="1"/><v:tabList/>documentation</text>		</g>
		<g id="shape87-363" v:mID="87" v:groupContext="shape" transform="translate(429.472,886.718) rotate(-179.966)">
			<title>Sheet.87</title>
			<path d="M0 469.51 L16.45 469.51" class="st6"/>
		</g>
		<g id="shape88-366" v:mID="88" v:groupContext="shape" transform="translate(619.672,-38.1311)">
			<title>Rectangle.2150</title>
			<desc>documentation</desc>
			<v:userDefs>
				<v:ud v:nameU="visVersion" v:val="VT0(11):26"/>
			</v:userDefs>
			<v:textBlock v:margins="rect(4,4,4,4)" v:tabSpace="42.5197"/>
			<v:textRect cx="45.3543" cy="455.338" width="90.71" height="28.3465"/>
			<g id="shadow88-367" v:groupContext="shadow" v:shadowOffsetX="2.12132" v:shadowOffsetY="-2.12132" v:shadowType="1"
					transform="matrix(1,0,0,1,2.12132,2.12132)" class="st1">
				<rect x="0" y="441.165" width="90.7087" height="28.3465" class="st2"/>
			</g>
			<rect x="0" y="441.165" width="90.7087" height="28.3465" class="st3"/>
			<text x="5.94" y="458.64" class="st11" v:langID="2057"><v:paragraph v:horizAlign="1"/><v:tabList/>documentation</text>		</g>
		<g id="shape89-372" v:mID="89" v:groupContext="shape" transform="translate(463.767,-6.24132)">
			<title>Rectangle.2151</title>
			<desc>DOC-format-spec.pdf</desc>
			<v:userDefs>
				<v:ud v:nameU="visVersion" v:val="VT0(11):26"/>
			</v:userDefs>
			<v:textBlock v:margins="rect(4,4,4,4)" v:tabSpace="42.5197"/>
			<v:textRect cx="66.7539" cy="458.882" width="133.51" height="21.2598"/>
			<g id="shadow89-373" v:groupContext="shadow" v:shadowOffsetX="2.12132" v:shadowOffsetY="-2.12132" v:shadowType="1"
					transform="matrix(1,0,0,1,2.12132,2.12132)" class="st1">
				<rect x="0" y="448.252" width="133.508" height="21.2598" class="st2"/>
			</g>
			<rect x="0" y="448.252" width="133.508" height="21.2598" class="st7"/>
			<text x="6.09" y="462.48" class="st8" v:langID="2057"><v:paragraph v:horizAlign="1"/><v:tabList/>DOC-format-spec.pdf</text>		</g>
		<g id="shape90-378" v:mID="90" v:groupContext="shape" transform="translate(463.767,922.152) rotate(180)">
			<title>Sheet.90</title>
			<path d="M0 469.51 L14.17 469.51" class="st6"/>
		</g>
		<g id="shape91-381" v:mID="91" v:groupContext="shape" transform="translate(170.003,452.64) rotate(-90)">
			<title>Sheet.91</title>
			<path d="M0 469.51 L21.26 469.51" class="st6"/>
		</g>
		<g id="shape92-384" v:mID="92" v:groupContext="shape" transform="translate(653.688,-6.24132)">
			<title>Rectangle.2154</title>
			<desc>PDF-format-spec.pdf</desc>
			<v:userDefs>
				<v:ud v:nameU="visVersion" v:val="VT0(11):26"/>
			</v:userDefs>
			<v:textBlock v:margins="rect(4,4,4,4)" v:tabSpace="42.5197"/>
			<v:textRect cx="67.4625" cy="458.882" width="134.93" height="21.2598"/>
			<g id="shadow92-385" v:groupContext="shadow" v:shadowOffsetX="2.12132" v:shadowOffsetY="-2.12132" v:shadowType="1"
					transform="matrix(1,0,0,1,2.12132,2.12132)" class="st1">
				<rect x="0" y="448.252" width="134.925" height="21.2598" class="st2"/>
			</g>
			<rect x="0" y="448.252" width="134.925" height="21.2598" class="st7"/>
			<text x="8.13" y="462.48" class="st8" v:langID="2057"><v:paragraph v:horizAlign="1"/><v:tabList/>PDF-format-spec.pdf</text>		</g>
		<g id="shape93-390" v:mID="93" v:groupContext="shape" transform="translate(653.688,922.152) rotate(180)">
			<title>Sheet.93</title>
			<path d="M0 469.51 L14.17 469.51" class="st6"/>
		</g>
		<g id="shape94-393" v:mID="94" v:groupContext="shape" transform="translate(820.124,669.852) rotate(178.922)">
			<title>Sheet.94</title>
			<path d="M0 469.51 L12.56 469.51" class="st6"/>
		</g>
		<g id="shape95-396" v:mID="95" v:groupContext="shape" transform="translate(820.124,627.332) rotate(178.922)">
			<title>Sheet.95</title>
			<path d="M0 469.51 L12.56 469.51" class="st6"/>
		</g>
		<g id="shape96-399" v:mID="96" v:groupContext="shape" transform="translate(820.124,584.813) rotate(178.922)">
			<title>Sheet.96</title>
			<path d="M0 469.51 L12.56 469.51" class="st6"/>
		</g>
	</g>
</svg>
