<?xml version="1.0" encoding="UTF-8" standalone="no"?>
<!DOCTYPE svg PUBLIC "-//W3C//DTD SVG 1.1//EN" "http://www.w3.org/Graphics/SVG/1.1/DTD/svg11.dtd">
<!-- Generated by Microsoft Visio, SVG Export Fig 8 CSIP.svg Page-1 -->
<svg xmlns="http://www.w3.org/2000/svg" xmlns:xlink="http://www.w3.org/1999/xlink" xmlns:ev="http://www.w3.org/2001/xml-events"
		xmlns:v="http://schemas.microsoft.com/visio/2003/SVGExtensions/" width="14.7798in" height="9.10308in"
		viewBox="0 0 1064.15 655.422" xml:space="preserve" color-interpolation-filters="sRGB" class="st8">
	<v:documentProperties v:langID="2057" v:metric="true" v:viewMarkup="false"/>

	<style type="text/css">
	<![CDATA[
		.st1 {visibility:visible}
		.st2 {fill:#000000;fill-opacity:0.4;filter:url(#filter_2.6666667461395);stroke:#000000;stroke-linecap:round;stroke-linejoin:round;stroke-opacity:0.4}
		.st3 {fill:#c6d8f0;stroke:#000000;stroke-linecap:round;stroke-linejoin:round;stroke-width:0.24}
		.st4 {fill:#000000;font-family:Arial;font-size:1.00001em;font-weight:bold}
		.st5 {stroke:#000000;stroke-linecap:round;stroke-linejoin:round;stroke-width:2}
		.st6 {stroke:#000000;stroke-linecap:round;stroke-linejoin:round;stroke-width:2.25}
		.st7 {fill:#f9dc53;stroke:#000000;stroke-linecap:round;stroke-linejoin:round;stroke-width:0.24}
		.st8 {fill:none;fill-rule:evenodd;font-size:12px;overflow:visible;stroke-linecap:square;stroke-miterlimit:3}
	]]>
	</style>

	<defs id="Filters">
		<filter id="filter_2.6666667461395">
			<feGaussianBlur stdDeviation="2.6666667461395"/>
		</filter>
	</defs>
	<g v:mID="0" v:index="1" v:groupContext="foregroundPage">
		<title>Page-1</title>
		<v:pageProperties v:drawingScale="0.0393701" v:pageScale="0.0393701" v:drawingUnits="24" v:shadowOffsetX="8.50394"
				v:shadowOffsetY="-8.50394"/>
		<g id="shape1-1" v:mID="1" v:groupContext="shape" transform="translate(441.277,-610.904)">
			<title>Rectangle.1952</title>
			<desc>IP_Name</desc>
			<v:userDefs>
				<v:ud v:nameU="visVersion" v:val="VT0(11):26"/>
			</v:userDefs>
			<v:textBlock v:margins="rect(4,4,4,4)" v:tabSpace="42.5197"/>
			<v:textRect cx="63.7795" cy="634.162" width="127.56" height="42.5197"/>
			<g id="shadow1-2" v:groupContext="shadow" v:shadowOffsetX="2.12132" v:shadowOffsetY="-2.12132" v:shadowType="1"
					transform="matrix(1,0,0,1,2.12132,2.12132)" class="st1">
				<rect x="0" y="612.902" width="127.559" height="42.5197" class="st2"/>
			</g>
			<rect x="0" y="612.902" width="127.559" height="42.5197" class="st3"/>
			<text x="38.43" y="637.76" class="st4" v:langID="2057"><v:paragraph v:horizAlign="1"/><v:tabList/>IP_Name</text>		</g>
		<g id="shape2-7" v:mID="2" v:groupContext="shape" transform="translate(66.3227,-488.131) rotate(0.0477885)">
			<title>Sheet.2</title>
			<path d="M0 655.42 L283.47 655.42" class="st5"/>
		</g>
		<g id="shape3-10" v:mID="3" v:groupContext="shape" transform="translate(129.558,-587.344)">
			<title>Sheet.3</title>
			<path d="M0 655.42 L864.57 655.42" class="st6"/>
		</g>
		<g id="shape4-13" v:mID="4" v:groupContext="shape" transform="translate(-136.1,181.464) rotate(-90)">
			<title>Sheet.4</title>
			<path d="M0 655.42 L14.17 655.42" class="st6"/>
		</g>
		<g id="shape5-16" v:mID="5" v:groupContext="shape" transform="translate(-150.365,68.0783) rotate(-90)">
			<title>Sheet.5</title>
			<path d="M0 655.42 L23.56 655.42" class="st6"/>
		</g>
		<g id="shape6-19" v:mID="6" v:groupContext="shape" transform="translate(338.703,96.4247) rotate(-90)">
			<title>Sheet.6</title>
			<path d="M0 655.42 L28.35 655.42" class="st6"/>
		</g>
		<g id="shape7-22" v:mID="7" v:groupContext="shape" transform="translate(-86.4941,167.291) rotate(-90)">
			<title>Sheet.7</title>
			<path d="M0 655.42 L28.35 655.42" class="st6"/>
		</g>
		<g id="shape8-25" v:mID="8" v:groupContext="shape" transform="translate(-525.864,96.4247) rotate(-90)">
			<title>Sheet.8</title>
			<path d="M0 655.42 L28.35 655.42" class="st6"/>
		</g>
		<g id="shape9-28" v:mID="9" v:groupContext="shape" transform="translate(1.99868,-431.438)">
			<title>Rectangle.1960</title>
			<desc>descriptive</desc>
			<v:userDefs>
				<v:ud v:nameU="visVersion" v:val="VT0(11):26"/>
			</v:userDefs>
			<v:textBlock v:margins="rect(4,4,4,4)" v:tabSpace="42.5197"/>
			<v:textRect cx="63.7795" cy="634.162" width="127.56" height="42.5197"/>
			<g id="shadow9-29" v:groupContext="shadow" v:shadowOffsetX="2.12132" v:shadowOffsetY="-2.12132" v:shadowType="1"
					transform="matrix(1,0,0,1,2.12132,2.12132)" class="st1">
				<rect x="0" y="612.902" width="127.559" height="42.5197" class="st2"/>
			</g>
			<rect x="0" y="612.902" width="127.559" height="42.5197" class="st3"/>
			<text x="31.43" y="637.76" class="st4" v:langID="2057"><v:paragraph v:horizAlign="1"/><v:tabList/>descriptive</text>		</g>
		<g id="shape10-34" v:mID="10" v:groupContext="shape" transform="translate(144.623,-431.43)">
			<title>Rectangle.1961</title>
			<desc>preservation</desc>
			<v:userDefs>
				<v:ud v:nameU="visVersion" v:val="VT0(11):26"/>
			</v:userDefs>
			<v:textBlock v:margins="rect(4,4,4,4)" v:tabSpace="42.5197"/>
			<v:textRect cx="63.7795" cy="634.162" width="127.56" height="42.5197"/>
			<g id="shadow10-35" v:groupContext="shadow" v:shadowOffsetX="2.12132" v:shadowOffsetY="-2.12132" v:shadowType="1"
					transform="matrix(1,0,0,1,2.12132,2.12132)" class="st1">
				<rect x="0" y="612.902" width="127.559" height="42.5197" class="st2"/>
			</g>
			<rect x="0" y="612.902" width="127.559" height="42.5197" class="st3"/>
			<text x="27.43" y="637.76" class="st4" v:langID="2057"><v:paragraph v:horizAlign="1"/><v:tabList/>preservation</text>		</g>
		<g id="shape11-40" v:mID="11" v:groupContext="shape" transform="translate(285.463,-431.438)">
			<title>Rectangle.1962</title>
			<desc>other</desc>
			<v:userDefs>
				<v:ud v:nameU="visVersion" v:val="VT0(11):26"/>
			</v:userDefs>
			<v:textBlock v:margins="rect(4,4,4,4)" v:tabSpace="42.5197"/>
			<v:textRect cx="63.7795" cy="634.162" width="127.56" height="42.5197"/>
			<g id="shadow11-41" v:groupContext="shadow" v:shadowOffsetX="2.12132" v:shadowOffsetY="-2.12132" v:shadowType="1"
					transform="matrix(1,0,0,1,2.12132,2.12132)" class="st1">
				<rect x="0" y="612.902" width="127.559" height="42.5197" class="st2"/>
			</g>
			<rect x="0" y="612.902" width="127.559" height="42.5197" class="st3"/>
			<text x="47.78" y="637.76" class="st4" v:langID="2057"><v:paragraph v:horizAlign="1"/><v:tabList/>other</text>		</g>
		<g id="shape12-46" v:mID="12" v:groupContext="shape" transform="translate(455.542,-431.438)">
			<title>Rectangle.1963</title>
			<desc>representationID</desc>
			<v:userDefs>
				<v:ud v:nameU="visVersion" v:val="VT0(11):26"/>
			</v:userDefs>
			<v:textBlock v:margins="rect(4,4,4,4)" v:tabSpace="42.5197"/>
			<v:textRect cx="63.7795" cy="634.162" width="127.56" height="42.5197"/>
			<g id="shadow12-47" v:groupContext="shadow" v:shadowOffsetX="2.12132" v:shadowOffsetY="-2.12132" v:shadowType="1"
					transform="matrix(1,0,0,1,2.12132,2.12132)" class="st1">
				<rect x="0" y="612.902" width="127.559" height="42.5197" class="st2"/>
			</g>
			<rect x="0" y="612.902" width="127.559" height="42.5197" class="st3"/>
			<text x="16.77" y="637.76" class="st4" v:langID="2057"><v:paragraph v:horizAlign="1"/><v:tabList/>representationID</text>		</g>
		<g id="shape13-52" v:mID="13" v:groupContext="shape" transform="translate(1004.5,161.176) rotate(89.4448)">
			<title>Sheet.13</title>
			<path d="M0 655.42 L13.94 655.42" class="st5"/>
		</g>
		<g id="shape14-55" v:mID="14" v:groupContext="shape" transform="translate(721.205,195.411) rotate(92.4589)">
			<title>Sheet.14</title>
			<path d="M0 655.42 L14.19 655.42" class="st5"/>
		</g>
		<g id="shape15-58" v:mID="15" v:groupContext="shape" transform="translate(505.148,-516.478)">
			<title>Rectangle.1966</title>
			<desc>representations</desc>
			<v:userDefs>
				<v:ud v:nameU="visVersion" v:val="VT0(11):26"/>
			</v:userDefs>
			<v:textBlock v:margins="rect(4,4,4,4)" v:tabSpace="42.5197"/>
			<v:textRect cx="63.7795" cy="634.162" width="127.56" height="42.5197"/>
			<g id="shadow15-59" v:groupContext="shadow" v:shadowOffsetX="2.12132" v:shadowOffsetY="-2.12132" v:shadowType="1"
					transform="matrix(1,0,0,1,2.12132,2.12132)" class="st1">
				<rect x="0" y="612.902" width="127.559" height="42.5197" class="st2"/>
			</g>
			<rect x="0" y="612.902" width="127.559" height="42.5197" class="st3"/>
			<text x="16.77" y="637.76" class="st4" v:langID="2057"><v:paragraph v:horizAlign="1"/><v:tabList/>representations</text>		</g>
		<g id="shape16-64" v:mID="16" v:groupContext="shape" transform="translate(646.881,-516.478)">
			<title>Rectangle.1967</title>
			<desc>schemas</desc>
			<v:userDefs>
				<v:ud v:nameU="visVersion" v:val="VT0(11):26"/>
			</v:userDefs>
			<v:textBlock v:margins="rect(4,4,4,4)" v:tabSpace="42.5197"/>
			<v:textRect cx="63.7795" cy="634.162" width="127.56" height="42.5197"/>
			<g id="shadow16-65" v:groupContext="shadow" v:shadowOffsetX="2.12132" v:shadowOffsetY="-2.12132" v:shadowType="1"
					transform="matrix(1,0,0,1,2.12132,2.12132)" class="st1">
				<rect x="0" y="612.902" width="127.559" height="42.5197" class="st2"/>
			</g>
			<rect x="0" y="612.902" width="127.559" height="42.5197" class="st3"/>
			<text x="37.43" y="637.76" class="st4" v:langID="2057"><v:paragraph v:horizAlign="1"/><v:tabList/>schemas</text>		</g>
		<g id="shape17-70" v:mID="17" v:groupContext="shape" transform="translate(788.613,-516.478)">
			<title>Rectangle.1968</title>
			<desc>documentation</desc>
			<v:userDefs>
				<v:ud v:nameU="visVersion" v:val="VT0(11):26"/>
			</v:userDefs>
			<v:textBlock v:margins="rect(4,4,4,4)" v:tabSpace="42.5197"/>
			<v:textRect cx="63.7795" cy="634.162" width="127.56" height="42.5197"/>
			<g id="shadow17-71" v:groupContext="shadow" v:shadowOffsetX="2.12132" v:shadowOffsetY="-2.12132" v:shadowType="1"
					transform="matrix(1,0,0,1,2.12132,2.12132)" class="st1">
				<rect x="0" y="612.902" width="127.559" height="42.5197" class="st2"/>
			</g>
			<rect x="0" y="612.902" width="127.559" height="42.5197" class="st3"/>
			<text x="20.11" y="637.76" class="st4" v:langID="2057"><v:paragraph v:horizAlign="1"/><v:tabList/>documentation</text>		</g>
		<g id="shape18-76" v:mID="18" v:groupContext="shape" transform="translate(930.345,-516.478)">
			<title>Rectangle.1969</title>
			<desc>...</desc>
			<v:userDefs>
				<v:ud v:nameU="visVersion" v:val="VT0(11):26"/>
			</v:userDefs>
			<v:textBlock v:margins="rect(4,4,4,4)" v:tabSpace="42.5197"/>
			<v:textRect cx="63.7795" cy="634.162" width="127.56" height="42.5197"/>
			<g id="shadow18-77" v:groupContext="shadow" v:shadowOffsetX="2.12132" v:shadowOffsetY="-2.12132" v:shadowType="1"
					transform="matrix(1,0,0,1,2.12132,2.12132)" class="st1">
				<rect x="0" y="612.902" width="127.559" height="42.5197" class="st2"/>
			</g>
			<rect x="0" y="612.902" width="127.559" height="42.5197" class="st3"/>
			<text x="58.78" y="637.76" class="st4" v:langID="2057"><v:paragraph v:horizAlign="1"/><v:tabList/>...</text>		</g>
		<g id="shape19-82" v:mID="19" v:groupContext="shape" transform="translate(685.857,822.713) rotate(180)">
			<title>Sheet.19</title>
			<path d="M0 655.42 L166.54 655.42" class="st6"/>
		</g>
		<g id="shape20-85" v:mID="20" v:groupContext="shape" transform="translate(30.435,181.464) rotate(-90)">
			<title>Sheet.20</title>
			<path d="M0 655.42 L14.17 655.42" class="st6"/>
		</g>
		<g id="shape21-88" v:mID="21" v:groupContext="shape" transform="translate(-86.4941,96.4247) rotate(-90)">
			<title>Sheet.21</title>
			<path d="M0 655.42 L28.35 655.42" class="st6"/>
		</g>
		<g id="shape22-91" v:mID="22" v:groupContext="shape" transform="translate(55.2382,96.4247) rotate(-90)">
			<title>Sheet.22</title>
			<path d="M0 655.42 L28.35 655.42" class="st6"/>
		</g>
		<g id="shape23-94" v:mID="23" v:groupContext="shape" transform="translate(1507.81,68.0783) rotate(90)">
			<title>Sheet.23</title>
			<path d="M0 655.42 L28.35 655.42" class="st6"/>
		</g>
		<g id="shape24-97" v:mID="24" v:groupContext="shape" transform="translate(622.077,-431.438)">
			<title>Rectangle.1975</title>
			<desc>representationID</desc>
			<v:userDefs>
				<v:ud v:nameU="visVersion" v:val="VT0(11):26"/>
			</v:userDefs>
			<v:textBlock v:margins="rect(4,4,4,4)" v:tabSpace="42.5197"/>
			<v:textRect cx="63.7795" cy="634.162" width="127.56" height="42.5197"/>
			<g id="shadow24-98" v:groupContext="shadow" v:shadowOffsetX="2.12132" v:shadowOffsetY="-2.12132" v:shadowType="1"
					transform="matrix(1,0,0,1,2.12132,2.12132)" class="st1">
				<rect x="0" y="612.902" width="127.559" height="42.5197" class="st2"/>
			</g>
			<rect x="0" y="612.902" width="127.559" height="42.5197" class="st3"/>
			<text x="16.77" y="637.76" class="st4" v:langID="2057"><v:paragraph v:horizAlign="1"/><v:tabList/>representationID</text>		</g>
		<g id="shape25-103" v:mID="25" v:groupContext="shape" transform="translate(65.7782,-516.478)">
			<title>Rectangle.1976</title>
			<desc>METS.xml</desc>
			<v:userDefs>
				<v:ud v:nameU="visVersion" v:val="VT0(11):26"/>
			</v:userDefs>
			<v:textBlock v:margins="rect(4,4,4,4)" v:tabSpace="42.5197"/>
			<v:textRect cx="63.7795" cy="634.162" width="127.56" height="42.5197"/>
			<g id="shadow25-104" v:groupContext="shadow" v:shadowOffsetX="2.12132" v:shadowOffsetY="-2.12132" v:shadowType="1"
					transform="matrix(1,0,0,1,2.12132,2.12132)" class="st1">
				<rect x="0" y="612.902" width="127.559" height="42.5197" class="st2"/>
			</g>
			<rect x="0" y="612.902" width="127.559" height="42.5197" class="st7"/>
			<text x="35.11" y="637.76" class="st4" v:langID="2057"><v:paragraph v:horizAlign="1"/><v:tabList/>METS.xml</text>		</g>
		<g id="shape26-109" v:mID="26" v:groupContext="shape" transform="translate(214.597,-516.478)">
			<title>Rectangle.1977</title>
			<desc>metadata</desc>
			<v:userDefs>
				<v:ud v:nameU="visVersion" v:val="VT0(11):26"/>
			</v:userDefs>
			<v:textBlock v:margins="rect(4,4,4,4)" v:tabSpace="42.5197"/>
			<v:textRect cx="63.7795" cy="634.162" width="127.56" height="42.5197"/>
			<g id="shadow26-110" v:groupContext="shadow" v:shadowOffsetX="2.12132" v:shadowOffsetY="-2.12132" v:shadowType="1"
					transform="matrix(1,0,0,1,2.12132,2.12132)" class="st1">
				<rect x="0" y="612.902" width="127.559" height="42.5197" class="st2"/>
			</g>
			<rect x="0" y="612.902" width="127.559" height="42.5197" class="st3"/>
			<text x="37.77" y="637.76" class="st4" v:langID="2057"><v:paragraph v:horizAlign="1"/><v:tabList/>metadata</text>		</g>
		<g id="shape27-115" v:mID="27" v:groupContext="shape" transform="translate(-631.183,241.306) rotate(-88.9311)">
			<title>Sheet.27</title>
			<path d="M0 655.42 L29.55 655.42" class="st6"/>
		</g>
		<g id="shape28-118" v:mID="28" v:groupContext="shape" transform="translate(38.2977,908.955) rotate(180)">
			<title>Sheet.28</title>
			<path d="M0 655.42 L14.17 655.42" class="st6"/>
		</g>
		<g id="shape29-121" v:mID="29" v:groupContext="shape" transform="translate(-489.546,291.459) rotate(-89.5641)">
			<title>Sheet.29</title>
			<path d="M0 655.42 L72.46 655.42" class="st6"/>
		</g>
		<g id="shape30-124" v:mID="30" v:groupContext="shape" transform="translate(490.975,-388.918)">
			<title>Rectangle.1981</title>
			<desc>METS.xml</desc>
			<v:userDefs>
				<v:ud v:nameU="visVersion" v:val="VT0(11):26"/>
			</v:userDefs>
			<v:textBlock v:margins="rect(4,4,4,4)" v:tabSpace="42.5197"/>
			<v:textRect cx="45.3543" cy="641.249" width="90.71" height="28.3465"/>
			<g id="shadow30-125" v:groupContext="shadow" v:shadowOffsetX="2.12132" v:shadowOffsetY="-2.12132" v:shadowType="1"
					transform="matrix(1,0,0,1,2.12132,2.12132)" class="st1">
				<rect x="0" y="627.075" width="90.7087" height="28.3465" class="st2"/>
			</g>
			<rect x="0" y="627.075" width="90.7087" height="28.3465" class="st7"/>
			<text x="16.68" y="644.85" class="st4" v:langID="2057"><v:paragraph v:horizAlign="1"/><v:tabList/>METS.xml</text>		</g>
		<g id="shape31-130" v:mID="31" v:groupContext="shape" transform="translate(-178.62,635.007) rotate(-90)">
			<title>Sheet.31</title>
			<path d="M0 655.42 L411.02 655.42" class="st6"/>
		</g>
		<g id="shape32-133" v:mID="32" v:groupContext="shape" transform="translate(490.975,950.272) rotate(180)">
			<title>Sheet.32</title>
			<path d="M0 655.42 L14.17 655.42" class="st6"/>
		</g>
		<g id="shape33-136" v:mID="33" v:groupContext="shape" transform="translate(490.975,907.752) rotate(180)">
			<title>Sheet.33</title>
			<path d="M0 655.42 L14.17 655.42" class="st6"/>
		</g>
		<g id="shape34-139" v:mID="34" v:groupContext="shape" transform="translate(522.865,-303.879)">
			<title>Rectangle.1993</title>
			<desc>descriptive</desc>
			<v:userDefs>
				<v:ud v:nameU="visVersion" v:val="VT0(11):26"/>
			</v:userDefs>
			<v:textBlock v:margins="rect(4,4,4,4)" v:tabSpace="42.5197"/>
			<v:textRect cx="46.063" cy="641.249" width="92.13" height="28.3465"/>
			<g id="shadow34-140" v:groupContext="shadow" v:shadowOffsetX="2.12132" v:shadowOffsetY="-2.12132" v:shadowType="1"
					transform="matrix(1,0,0,1,2.12132,2.12132)" class="st1">
				<rect x="0" y="627.075" width="92.126" height="28.3465" class="st2"/>
			</g>
			<rect x="0" y="627.075" width="92.126" height="28.3465" class="st3"/>
			<text x="13.71" y="644.85" class="st4" v:langID="2057"><v:paragraph v:horizAlign="1"/><v:tabList/>descriptive</text>		</g>
		<g id="shape35-145" v:mID="35" v:groupContext="shape" transform="translate(522.865,-261.359)">
			<title>Rectangle.1994</title>
			<desc>preservation</desc>
			<v:userDefs>
				<v:ud v:nameU="visVersion" v:val="VT0(11):26"/>
			</v:userDefs>
			<v:textBlock v:margins="rect(4,4,4,4)" v:tabSpace="42.5197"/>
			<v:textRect cx="46.063" cy="641.249" width="92.13" height="28.3465"/>
			<g id="shadow35-146" v:groupContext="shadow" v:shadowOffsetX="2.12132" v:shadowOffsetY="-2.12132" v:shadowType="1"
					transform="matrix(1,0,0,1,2.12132,2.12132)" class="st1">
				<rect x="0" y="627.075" width="92.126" height="28.3465" class="st2"/>
			</g>
			<rect x="0" y="627.075" width="92.126" height="28.3465" class="st3"/>
			<text x="9.71" y="644.85" class="st4" v:langID="2057"><v:paragraph v:horizAlign="1"/><v:tabList/>preservation</text>		</g>
		<g id="shape36-151" v:mID="36" v:groupContext="shape" transform="translate(522.865,-218.84)">
			<title>Rectangle.1995</title>
			<desc>...</desc>
			<v:userDefs>
				<v:ud v:nameU="visVersion" v:val="VT0(11):26"/>
			</v:userDefs>
			<v:textBlock v:margins="rect(4,4,4,4)" v:tabSpace="42.5197"/>
			<v:textRect cx="46.063" cy="641.249" width="92.13" height="28.3465"/>
			<g id="shadow36-152" v:groupContext="shadow" v:shadowOffsetX="2.12132" v:shadowOffsetY="-2.12132" v:shadowType="1"
					transform="matrix(1,0,0,1,2.12132,2.12132)" class="st1">
				<rect x="0" y="627.075" width="92.126" height="28.3465" class="st2"/>
			</g>
			<rect x="0" y="627.075" width="92.126" height="28.3465" class="st3"/>
			<text x="41.06" y="644.85" class="st4" v:langID="2057"><v:paragraph v:horizAlign="1"/><v:tabList/>...</text>		</g>
		<g id="shape37-157" v:mID="37" v:groupContext="shape" transform="translate(-146.73,422.409) rotate(-90)">
			<title>Sheet.37</title>
			<path d="M0 655.42 L113.39 655.42" class="st6"/>
		</g>
		<g id="shape38-160" v:mID="38" v:groupContext="shape" transform="translate(522.865,1077.83) rotate(180)">
			<title>Sheet.38</title>
			<path d="M0 655.42 L14.17 655.42" class="st6"/>
		</g>
		<g id="shape39-163" v:mID="39" v:groupContext="shape" transform="translate(522.865,1035.31) rotate(180)">
			<title>Sheet.39</title>
			<path d="M0 655.42 L14.17 655.42" class="st6"/>
		</g>
		<g id="shape40-166" v:mID="40" v:groupContext="shape" transform="translate(522.865,992.792) rotate(180)">
			<title>Sheet.40</title>
			<path d="M0 655.42 L14.17 655.42" class="st6"/>
		</g>
		<g id="shape41-169" v:mID="41" v:groupContext="shape" transform="translate(490.975,-48.761)">
			<title>Rectangle.2000</title>
			<desc>documentation</desc>
			<v:userDefs>
				<v:ud v:nameU="visVersion" v:val="VT0(11):26"/>
			</v:userDefs>
			<v:textBlock v:margins="rect(4,4,4,4)" v:tabSpace="42.5197"/>
			<v:textRect cx="51.6864" cy="641.249" width="103.38" height="28.3465"/>
			<g id="shadow41-170" v:groupContext="shadow" v:shadowOffsetX="2.12132" v:shadowOffsetY="-2.12132" v:shadowType="1"
					transform="matrix(1,0,0,1,2.12132,2.12132)" class="st1">
				<rect x="0" y="627.075" width="103.373" height="28.3465" class="st2"/>
			</g>
			<rect x="0" y="627.075" width="103.373" height="28.3465" class="st3"/>
			<text x="8.02" y="644.85" class="st4" v:langID="2057"><v:paragraph v:horizAlign="1"/><v:tabList/>documentation</text>		</g>
		<g id="shape42-175" v:mID="42" v:groupContext="shape" transform="translate(490.975,-6.24132)">
			<title>Rectangle.2001</title>
			<desc>...</desc>
			<v:userDefs>
				<v:ud v:nameU="visVersion" v:val="VT0(11):26"/>
			</v:userDefs>
			<v:textBlock v:margins="rect(4,4,4,4)" v:tabSpace="42.5197"/>
			<v:textRect cx="46.063" cy="641.249" width="92.13" height="28.3465"/>
			<g id="shadow42-176" v:groupContext="shadow" v:shadowOffsetX="2.12132" v:shadowOffsetY="-2.12132" v:shadowType="1"
					transform="matrix(1,0,0,1,2.12132,2.12132)" class="st1">
				<rect x="0" y="627.075" width="92.126" height="28.3465" class="st2"/>
			</g>
			<rect x="0" y="627.075" width="92.126" height="28.3465" class="st3"/>
			<text x="41.06" y="644.85" class="st4" v:langID="2057"><v:paragraph v:horizAlign="1"/><v:tabList/>...</text>		</g>
		<g id="shape43-181" v:mID="43" v:groupContext="shape" transform="translate(490.975,1290.43) rotate(180)">
			<title>Sheet.43</title>
			<path d="M0 655.42 L14.17 655.42" class="st6"/>
		</g>
		<g id="shape44-184" v:mID="44" v:groupContext="shape" transform="translate(490.975,1247.91) rotate(180)">
			<title>Sheet.44</title>
			<path d="M0 655.42 L14.17 655.42" class="st6"/>
		</g>
		<g id="shape45-187" v:mID="45" v:groupContext="shape" transform="translate(490.975,-346.399)">
			<title>Rectangle.2004</title>
			<desc>metadata</desc>
			<v:userDefs>
				<v:ud v:nameU="visVersion" v:val="VT0(11):26"/>
			</v:userDefs>
			<v:textBlock v:margins="rect(4,4,4,4)" v:tabSpace="42.5197"/>
			<v:textRect cx="45.3543" cy="641.249" width="90.71" height="28.3465"/>
			<g id="shadow45-188" v:groupContext="shadow" v:shadowOffsetX="2.12132" v:shadowOffsetY="-2.12132" v:shadowType="1"
					transform="matrix(1,0,0,1,2.12132,2.12132)" class="st1">
				<rect x="0" y="627.075" width="90.7087" height="28.3465" class="st2"/>
			</g>
			<rect x="0" y="627.075" width="90.7087" height="28.3465" class="st3"/>
			<text x="19.35" y="644.85" class="st4" v:langID="2057"><v:paragraph v:horizAlign="1"/><v:tabList/>metadata</text>		</g>
		<g id="shape46-193" v:mID="46" v:groupContext="shape" transform="translate(492.747,1120.35) rotate(180)">
			<title>Sheet.46</title>
			<path d="M0 655.42 L14.17 655.42" class="st6"/>
		</g>
		<g id="shape47-196" v:mID="47" v:groupContext="shape" transform="translate(524.636,-133.8)">
			<title>Rectangle.2006</title>
			<desc>File1.pdf</desc>
			<v:userDefs>
				<v:ud v:nameU="visVersion" v:val="VT0(11):26"/>
			</v:userDefs>
			<v:textBlock v:margins="rect(4,4,4,4)" v:tabSpace="42.5197"/>
			<v:textRect cx="46.063" cy="641.249" width="92.13" height="28.3465"/>
			<g id="shadow47-197" v:groupContext="shadow" v:shadowOffsetX="2.12132" v:shadowOffsetY="-2.12132" v:shadowType="1"
					transform="matrix(1,0,0,1,2.12132,2.12132)" class="st1">
				<rect x="0" y="627.075" width="92.126" height="28.3465" class="st2"/>
			</g>
			<rect x="0" y="627.075" width="92.126" height="28.3465" class="st7"/>
			<text x="21.39" y="644.85" class="st4" v:langID="2057"><v:paragraph v:horizAlign="1"/><v:tabList/>File1.pdf</text>		</g>
		<g id="shape48-202" v:mID="48" v:groupContext="shape" transform="translate(524.636,-91.2807)">
			<title>Rectangle.2007</title>
			<desc>...</desc>
			<v:userDefs>
				<v:ud v:nameU="visVersion" v:val="VT0(11):26"/>
			</v:userDefs>
			<v:textBlock v:margins="rect(4,4,4,4)" v:tabSpace="42.5197"/>
			<v:textRect cx="46.063" cy="641.249" width="92.13" height="28.3465"/>
			<g id="shadow48-203" v:groupContext="shadow" v:shadowOffsetX="2.12132" v:shadowOffsetY="-2.12132" v:shadowType="1"
					transform="matrix(1,0,0,1,2.12132,2.12132)" class="st1">
				<rect x="0" y="627.075" width="92.126" height="28.3465" class="st2"/>
			</g>
			<rect x="0" y="627.075" width="92.126" height="28.3465" class="st7"/>
			<text x="41.06" y="644.85" class="st4" v:langID="2057"><v:paragraph v:horizAlign="1"/><v:tabList/>...</text>		</g>
		<g id="shape49-208" v:mID="49" v:groupContext="shape" transform="translate(-144.959,549.968) rotate(-90)">
			<title>Sheet.49</title>
			<path d="M0 655.42 L70.87 655.42" class="st6"/>
		</g>
		<g id="shape50-211" v:mID="50" v:groupContext="shape" transform="translate(524.636,1205.39) rotate(180)">
			<title>Sheet.50</title>
			<path d="M0 655.42 L14.17 655.42" class="st6"/>
		</g>
		<g id="shape51-214" v:mID="51" v:groupContext="shape" transform="translate(524.636,1162.87) rotate(180)">
			<title>Sheet.51</title>
			<path d="M0 655.42 L14.17 655.42" class="st6"/>
		</g>
		<g id="shape52-217" v:mID="52" v:groupContext="shape" transform="translate(492.747,-176.32)">
			<title>Rectangle.2011</title>
			<desc>data</desc>
			<v:userDefs>
				<v:ud v:nameU="visVersion" v:val="VT0(11):26"/>
			</v:userDefs>
			<v:textBlock v:margins="rect(4,4,4,4)" v:tabSpace="42.5197"/>
			<v:textRect cx="45.3543" cy="641.249" width="90.71" height="28.3465"/>
			<g id="shadow52-218" v:groupContext="shadow" v:shadowOffsetX="2.12132" v:shadowOffsetY="-2.12132" v:shadowType="1"
					transform="matrix(1,0,0,1,2.12132,2.12132)" class="st1">
				<rect x="0" y="627.075" width="90.7087" height="28.3465" class="st2"/>
			</g>
			<rect x="0" y="627.075" width="90.7087" height="28.3465" class="st3"/>
			<text x="32.35" y="644.85" class="st4" v:langID="2057"><v:paragraph v:horizAlign="1"/><v:tabList/>data</text>		</g>
		<g id="shape53-223" v:mID="53" v:groupContext="shape" transform="translate(-377.045,167.291) rotate(-90)">
			<title>Sheet.53</title>
			<path d="M0 655.42 L28.35 655.42" class="st6"/>
		</g>
		<g id="shape54-226" v:mID="54" v:groupContext="shape" transform="translate(-377.045,96.4247) rotate(-90)">
			<title>Sheet.54</title>
			<path d="M0 655.42 L28.35 655.42" class="st6"/>
		</g>
		<g id="shape55-229" v:mID="55" v:groupContext="shape" transform="translate(180.03,-387.322)">
			<title>Rectangle.2014</title>
			<desc>PREMIS.xml</desc>
			<v:userDefs>
				<v:ud v:nameU="visVersion" v:val="VT0(11):26"/>
			</v:userDefs>
			<v:textBlock v:margins="rect(4,4,4,4)" v:tabSpace="42.5197"/>
			<v:textRect cx="45.3543" cy="641.249" width="90.71" height="28.3465"/>
			<g id="shadow55-230" v:groupContext="shadow" v:shadowOffsetX="2.12132" v:shadowOffsetY="-2.12132" v:shadowType="1"
					transform="matrix(1,0,0,1,2.12132,2.12132)" class="st1">
				<rect x="0" y="627.075" width="90.7087" height="28.3465" class="st2"/>
			</g>
			<rect x="0" y="627.075" width="90.7087" height="28.3465" class="st7"/>
			<text x="10.34" y="644.85" class="st4" v:langID="2057"><v:paragraph v:horizAlign="1"/><v:tabList/>PREMIS.xml</text>		</g>
		<g id="shape56-235" v:mID="56" v:groupContext="shape" transform="translate(180.03,951.868) rotate(180)">
			<title>Sheet.56</title>
			<path d="M0 655.42 L14.17 655.42" class="st6"/>
		</g>
		<g id="shape57-238" v:mID="57" v:groupContext="shape" transform="translate(180.03,909.349) rotate(180)">
			<title>Sheet.57</title>
			<path d="M0 655.42 L14.17 655.42" class="st6"/>
		</g>
		<g id="shape58-241" v:mID="58" v:groupContext="shape" transform="translate(180.03,-344.802)">
			<title>Rectangle.2017</title>
			<desc>… .xml</desc>
			<v:userDefs>
				<v:ud v:nameU="visVersion" v:val="VT0(11):26"/>
			</v:userDefs>
			<v:textBlock v:margins="rect(4,4,4,4)" v:tabSpace="42.5197"/>
			<v:textRect cx="45.3543" cy="641.249" width="90.71" height="28.3465"/>
			<g id="shadow58-242" v:groupContext="shadow" v:shadowOffsetX="2.12132" v:shadowOffsetY="-2.12132" v:shadowType="1"
					transform="matrix(1,0,0,1,2.12132,2.12132)" class="st1">
				<rect x="0" y="627.075" width="90.7087" height="28.3465" class="st2"/>
			</g>
			<rect x="0" y="627.075" width="90.7087" height="28.3465" class="st7"/>
			<text x="27.35" y="644.85" class="st4" v:langID="2057"><v:paragraph v:horizAlign="1"/><v:tabList/>… .xml</text>		</g>
		<g id="shape59-247" v:mID="59" v:groupContext="shape" transform="translate(38.2977,-387.715)">
			<title>Rectangle.2018</title>
			<desc>EAD.xml</desc>
			<v:userDefs>
				<v:ud v:nameU="visVersion" v:val="VT0(11):26"/>
			</v:userDefs>
			<v:textBlock v:margins="rect(4,4,4,4)" v:tabSpace="42.5197"/>
			<v:textRect cx="45.3543" cy="641.249" width="90.71" height="28.3465"/>
			<g id="shadow59-248" v:groupContext="shadow" v:shadowOffsetX="2.12132" v:shadowOffsetY="-2.12132" v:shadowType="1"
					transform="matrix(1,0,0,1,2.12132,2.12132)" class="st1">
				<rect x="0" y="627.075" width="90.7087" height="28.3465" class="st2"/>
			</g>
			<rect x="0" y="627.075" width="90.7087" height="28.3465" class="st7"/>
			<text x="20.68" y="644.85" class="st4" v:langID="2057"><v:paragraph v:horizAlign="1"/><v:tabList/>EAD.xml</text>		</g>
		<g id="shape60-253" v:mID="60" v:groupContext="shape" transform="translate(863.658,161.184) rotate(89.4448)">
			<title>Sheet.60</title>
			<path d="M0 655.42 L13.94 655.42" class="st5"/>
		</g>
	</g>
</svg>
