<?xml version="1.0" encoding="UTF-8" standalone="no"?>
<!DOCTYPE svg PUBLIC "-//W3C//DTD SVG 1.1//EN" "http://www.w3.org/Graphics/SVG/1.1/DTD/svg11.dtd">
<!-- Generated by Microsoft Visio, SVG Export Fig 11 CSIP.svg Page-1 -->
<svg xmlns="http://www.w3.org/2000/svg" xmlns:xlink="http://www.w3.org/1999/xlink" xmlns:ev="http://www.w3.org/2001/xml-events"
		xmlns:v="http://schemas.microsoft.com/visio/2003/SVGExtensions/" width="12.3812in" height="3.25204in"
		viewBox="0 0 891.446 234.147" xml:space="preserve" color-interpolation-filters="sRGB" class="st13">
	<v:documentProperties v:langID="2057" v:metric="true" v:viewMarkup="false"/>

	<style type="text/css">
	<![CDATA[
		.st1 {visibility:visible}
		.st2 {fill:#000000;fill-opacity:0.4;filter:url(#filter_2.6666667461395);stroke:#000000;stroke-linecap:round;stroke-linejoin:round;stroke-opacity:0.4}
		.st3 {fill:#c6d8f0;stroke:#000000;stroke-linecap:round;stroke-linejoin:round;stroke-width:0.24}
		.st4 {fill:#000000;font-family:Arial;font-size:1.00001em;font-weight:bold}
		.st5 {stroke:#000000;stroke-linecap:round;stroke-linejoin:round;stroke-width:2}
		.st6 {stroke:#000000;stroke-linecap:round;stroke-linejoin:round;stroke-width:2.25}
		.st7 {fill:#f9dc53;stroke:#000000;stroke-linecap:round;stroke-linejoin:round;stroke-width:0.24}
		.st8 {fill:#000000;fill-opacity:0.4;filter:url(#filter_2.6666667461395);stroke:#000000;stroke-dasharray:21,15;stroke-linecap:round;stroke-linejoin:round;stroke-opacity:0.4}
		.st9 {fill:#f9dc53;stroke:#000000;stroke-dasharray:21,15;stroke-linecap:round;stroke-linejoin:round;stroke-width:3}
		.st10 {fill:#000000;font-family:Arial;font-size:1.00001em;font-style:italic;font-weight:bold}
		.st11 {fill:#c6d8f0;stroke:#000000;stroke-dasharray:21,15;stroke-linecap:round;stroke-linejoin:round;stroke-width:3}
		.st12 {fill:none;stroke:#ff0000;stroke-linecap:round;stroke-linejoin:round;stroke-width:4.5}
		.st13 {fill:none;fill-rule:evenodd;font-size:12px;overflow:visible;stroke-linecap:square;stroke-miterlimit:3}
	]]>
	</style>

	<defs id="Filters">
		<filter id="filter_2.6666667461395">
			<feGaussianBlur stdDeviation="2.6666667461395"/>
		</filter>
	</defs>
	<g v:mID="0" v:index="1" v:groupContext="foregroundPage">
		<title>Page-1</title>
		<v:pageProperties v:drawingScale="0.0393701" v:pageScale="0.0393701" v:drawingUnits="24" v:shadowOffsetX="8.50394"
				v:shadowOffsetY="-8.50394"/>
		<g id="shape1-1" v:mID="1" v:groupContext="shape" transform="translate(323.982,-203.802)">
			<title>Rectangle.2159</title>
			<desc>IP_Name</desc>
			<v:userDefs>
				<v:ud v:nameU="visVersion" v:val="VT0(11):26"/>
			</v:userDefs>
			<v:textBlock v:margins="rect(4,4,4,4)" v:tabSpace="42.5197"/>
			<v:textRect cx="63.7795" cy="219.974" width="127.56" height="28.3465"/>
			<g id="shadow1-2" v:groupContext="shadow" v:shadowOffsetX="2.12132" v:shadowOffsetY="-2.12132" v:shadowType="1"
					transform="matrix(1,0,0,1,2.12132,2.12132)" class="st1">
				<rect x="0" y="205.8" width="127.559" height="28.3465" class="st2"/>
			</g>
			<rect x="0" y="205.8" width="127.559" height="28.3465" class="st3"/>
			<text x="38.43" y="223.57" class="st4" v:langID="2057"><v:paragraph v:horizAlign="1"/><v:tabList/>IP_Name</text>		</g>
		<g id="shape2-7" v:mID="2" v:groupContext="shape" transform="translate(76.8618,-130.68) rotate(0.255967)">
			<title>Sheet.2</title>
			<path d="M0 234.15 L283.47 234.15" class="st5"/>
		</g>
		<g id="shape3-10" v:mID="3" v:groupContext="shape" transform="translate(140.16,-189.628) rotate(0.105219)">
			<title>Sheet.3</title>
			<path d="M0 234.15 L680.32 234.15" class="st6"/>
		</g>
		<g id="shape4-13" v:mID="4" v:groupContext="shape" transform="translate(-94.4166,58.6916) rotate(-90)">
			<title>Sheet.4</title>
			<path d="M0 234.15 L14.17 234.15" class="st6"/>
		</g>
		<g id="shape5-16" v:mID="5" v:groupContext="shape" transform="translate(153.012,-88.4076)">
			<title>Rectangle.2163</title>
			<desc>preservation</desc>
			<v:userDefs>
				<v:ud v:nameU="visVersion" v:val="VT0(11):26"/>
			</v:userDefs>
			<v:textBlock v:margins="rect(4,4,4,4)" v:tabSpace="42.5197"/>
			<v:textRect cx="63.7795" cy="219.974" width="127.56" height="28.3465"/>
			<g id="shadow5-17" v:groupContext="shadow" v:shadowOffsetX="2.12132" v:shadowOffsetY="-2.12132" v:shadowType="1"
					transform="matrix(1,0,0,1,2.12132,2.12132)" class="st1">
				<rect x="0" y="205.8" width="127.559" height="28.3465" class="st2"/>
			</g>
			<rect x="0" y="205.8" width="127.559" height="28.3465" class="st3"/>
			<text x="27.76" y="223.57" class="st4" v:langID="2057"><v:paragraph v:horizAlign="1"/><v:tabList/>preservation</text>		</g>
		<g id="shape6-22" v:mID="6" v:groupContext="shape" transform="translate(593.416,102.462) rotate(89.4448)">
			<title>Sheet.6</title>
			<path d="M0 234.15 L13.94 234.15" class="st5"/>
		</g>
		<g id="shape7-25" v:mID="7" v:groupContext="shape" transform="translate(451.541,-145.86)">
			<title>Rectangle.2165</title>
			<desc>representations</desc>
			<v:userDefs>
				<v:ud v:nameU="visVersion" v:val="VT0(11):26"/>
			</v:userDefs>
			<v:textBlock v:margins="rect(4,4,4,4)" v:tabSpace="42.5197"/>
			<v:textRect cx="63.7795" cy="219.974" width="127.56" height="28.3465"/>
			<g id="shadow7-26" v:groupContext="shadow" v:shadowOffsetX="2.12132" v:shadowOffsetY="-2.12132" v:shadowType="1"
					transform="matrix(1,0,0,1,2.12132,2.12132)" class="st1">
				<rect x="0" y="205.8" width="127.559" height="28.3465" class="st2"/>
			</g>
			<rect x="0" y="205.8" width="127.559" height="28.3465" class="st3"/>
			<text x="18.76" y="223.57" class="st4" v:langID="2057"><v:paragraph v:horizAlign="1"/><v:tabList/>representations</text>		</g>
		<g id="shape8-31" v:mID="8" v:groupContext="shape" transform="translate(281.174,59.9409) rotate(-90)">
			<title>Sheet.8</title>
			<path d="M0 234.15 L14.17 234.15" class="st6"/>
		</g>
		<g id="shape9-34" v:mID="9" v:groupContext="shape" transform="translate(75.9508,-147.109)">
			<title>Rectangle.2167</title>
			<desc>METS.xml</desc>
			<v:userDefs>
				<v:ud v:nameU="visVersion" v:val="VT0(11):26"/>
			</v:userDefs>
			<v:textBlock v:margins="rect(4,4,4,4)" v:tabSpace="42.5197"/>
			<v:textRect cx="63.7795" cy="219.974" width="127.56" height="28.3465"/>
			<g id="shadow9-35" v:groupContext="shadow" v:shadowOffsetX="2.12132" v:shadowOffsetY="-2.12132" v:shadowType="1"
					transform="matrix(1,0,0,1,2.12132,2.12132)" class="st1">
				<rect x="0" y="205.8" width="127.559" height="28.3465" class="st2"/>
			</g>
			<rect x="0" y="205.8" width="127.559" height="28.3465" class="st7"/>
			<text x="35.11" y="223.57" class="st4" v:langID="2057"><v:paragraph v:horizAlign="1"/><v:tabList/>METS.xml</text>		</g>
		<g id="shape10-40" v:mID="10" v:groupContext="shape" transform="translate(224.77,-147.109)">
			<title>Rectangle.2168</title>
			<desc>metadata</desc>
			<v:userDefs>
				<v:ud v:nameU="visVersion" v:val="VT0(11):26"/>
			</v:userDefs>
			<v:textBlock v:margins="rect(4,4,4,4)" v:tabSpace="42.5197"/>
			<v:textRect cx="63.7795" cy="219.974" width="127.56" height="28.3465"/>
			<g id="shadow10-41" v:groupContext="shadow" v:shadowOffsetX="2.12132" v:shadowOffsetY="-2.12132" v:shadowType="1"
					transform="matrix(1,0,0,1,2.12132,2.12132)" class="st1">
				<rect x="0" y="205.8" width="127.559" height="28.3465" class="st2"/>
			</g>
			<rect x="0" y="205.8" width="127.559" height="28.3465" class="st3"/>
			<text x="37.44" y="223.57" class="st4" v:langID="2057"><v:paragraph v:horizAlign="1"/><v:tabList/>metadata</text>		</g>
		<g id="shape11-46" v:mID="11" v:groupContext="shape" transform="translate(-61.1331,213.039) rotate(-90)">
			<title>Sheet.11</title>
			<path d="M0 234.15 L67.3 234.15" class="st6"/>
		</g>
		<g id="shape12-49" v:mID="12" v:groupContext="shape" transform="translate(190.754,408.469) rotate(180)">
			<title>Sheet.12</title>
			<path d="M0 234.15 L17.74 234.15" class="st6"/>
		</g>
		<g id="shape13-52" v:mID="13" v:groupContext="shape" transform="translate(-201.568,172.588) rotate(-89.5641)">
			<title>Sheet.13</title>
			<path d="M0 234.15 L28.63 234.15" class="st6"/>
		</g>
		<g id="shape14-55" v:mID="14" v:groupContext="shape" transform="translate(-17.1306,107.135) rotate(-87.4891)">
			<title>Sheet.14</title>
			<path d="M0 234.15 L13.31 234.15" class="st6"/>
		</g>
		<g id="shape15-58" v:mID="15" v:groupContext="shape" transform="translate(54.4023,58.6916) rotate(-90)">
			<title>Sheet.15</title>
			<path d="M0 234.15 L14.17 234.15" class="st6"/>
		</g>
		<g id="shape16-61" v:mID="16" v:groupContext="shape" transform="translate(49.0217,-45.6515)">
			<title>Rectangle.2174</title>
			<desc>EAD.xml</desc>
			<v:userDefs>
				<v:ud v:nameU="visVersion" v:val="VT0(11):26"/>
			</v:userDefs>
			<v:textBlock v:margins="rect(4,4,4,4)" v:tabSpace="42.5197"/>
			<v:textRect cx="45.3543" cy="219.974" width="90.71" height="28.3465"/>
			<g id="shadow16-62" v:groupContext="shadow" v:shadowOffsetX="2.12132" v:shadowOffsetY="-2.12132" v:shadowType="1"
					transform="matrix(1,0,0,1,2.12132,2.12132)" class="st1">
				<path d="M0 234.15 L90.71 234.15 L90.71 205.8 L0 205.8 L0 234.15 Z" class="st8"/>
			</g>
			<path d="M0 234.15 L90.71 234.15 L90.71 205.8 L0 205.8 L0 234.15 Z" class="st9"/>
			<text x="20.68" y="223.57" class="st10" v:langID="2057"><v:paragraph v:horizAlign="1"/><v:tabList/>EAD.xml</text>		</g>
		<g id="shape17-67" v:mID="17" v:groupContext="shape" transform="translate(49.693,408.468) rotate(179.836)">
			<title>Sheet.17</title>
			<path d="M0 234.15 L16.45 234.15" class="st6"/>
		</g>
		<g id="shape18-70" v:mID="18" v:groupContext="shape" transform="translate(190.754,-45.6515)">
			<title>Rectangle.2176</title>
			<desc>PREMIS.xml</desc>
			<v:userDefs>
				<v:ud v:nameU="visVersion" v:val="VT0(11):26"/>
			</v:userDefs>
			<v:textBlock v:margins="rect(4,4,4,4)" v:tabSpace="42.5197"/>
			<v:textRect cx="45.3543" cy="219.974" width="90.71" height="28.3465"/>
			<g id="shadow18-71" v:groupContext="shadow" v:shadowOffsetX="2.12132" v:shadowOffsetY="-2.12132" v:shadowType="1"
					transform="matrix(1,0,0,1,2.12132,2.12132)" class="st1">
				<rect x="0" y="205.8" width="90.7087" height="28.3465" class="st2"/>
			</g>
			<rect x="0" y="205.8" width="90.7087" height="28.3465" class="st7"/>
			<text x="10.34" y="223.57" class="st10" v:langID="2057"><v:paragraph v:horizAlign="1"/><v:tabList/>PREMIS.xml</text>		</g>
		<g id="shape19-76" v:mID="19" v:groupContext="shape" transform="translate(309.952,101.196) rotate(89.4448)">
			<title>Sheet.19</title>
			<path d="M0 234.15 L13.94 234.15" class="st5"/>
		</g>
		<g id="shape20-79" v:mID="20" v:groupContext="shape" transform="translate(451.541,-86.6732)">
			<title>Rectangle.2178</title>
			<desc>representationID</desc>
			<v:userDefs>
				<v:ud v:nameU="visVersion" v:val="VT0(11):26"/>
			</v:userDefs>
			<v:textBlock v:margins="rect(4,4,4,4)" v:tabSpace="42.5197"/>
			<v:textRect cx="63.7795" cy="219.978" width="127.56" height="28.3378"/>
			<g id="shadow20-80" v:groupContext="shadow" v:shadowOffsetX="2.12132" v:shadowOffsetY="-2.12132" v:shadowType="1"
					transform="matrix(1,0,0,1,2.12132,2.12132)" class="st1">
				<rect x="0" y="205.809" width="127.559" height="28.3378" class="st2"/>
			</g>
			<rect x="0" y="205.809" width="127.559" height="28.3378" class="st3"/>
			<text x="48.44" y="223.58" class="st4" v:langID="2057"><v:paragraph v:horizAlign="1"/><v:tabList/>representationID</text>		</g>
		<g id="shape21-85" v:mID="21" v:groupContext="shape" transform="translate(898.141,43.735) rotate(89.4448)">
			<title>Sheet.21</title>
			<path d="M0 234.15 L13.94 234.15" class="st5"/>
		</g>
		<g id="shape22-88" v:mID="22" v:groupContext="shape" transform="translate(193.888,446.478) rotate(179.233)">
			<title>Sheet.22</title>
			<path d="M0 234.15 L17.74 234.15" class="st6"/>
		</g>
		<g id="shape23-91" v:mID="23" v:groupContext="shape" transform="translate(190.754,-7.62133)">
			<title>Rectangle.2181</title>
			<desc>… .xml</desc>
			<v:userDefs>
				<v:ud v:nameU="visVersion" v:val="VT0(11):26"/>
			</v:userDefs>
			<v:textBlock v:margins="rect(4,4,4,4)" v:tabSpace="42.5197"/>
			<v:textRect cx="45.3543" cy="219.974" width="90.71" height="28.3465"/>
			<g id="shadow23-92" v:groupContext="shadow" v:shadowOffsetX="2.12132" v:shadowOffsetY="-2.12132" v:shadowType="1"
					transform="matrix(1,0,0,1,2.12132,2.12132)" class="st1">
				<path d="M0 234.15 L90.71 234.15 L90.71 205.8 L0 205.8 L0 234.15 Z" class="st8"/>
			</g>
			<path d="M0 234.15 L90.71 234.15 L90.71 205.8 L0 205.8 L0 234.15 Z" class="st9"/>
			<text x="25.68" y="223.57" class="st10" v:langID="2057"><v:paragraph v:horizAlign="1"/><v:tabList/>… .xml</text>		</g>
		<g id="shape24-97" v:mID="24" v:groupContext="shape" transform="translate(153.615,44.5183) rotate(-90)">
			<title>Sheet.24</title>
			<path d="M0 234.15 L14.17 234.15" class="st6"/>
		</g>
		<g id="shape25-100" v:mID="25" v:groupContext="shape" transform="translate(600.36,-145.86)">
			<title>Rectangle.2183</title>
			<desc>schemas</desc>
			<v:userDefs>
				<v:ud v:nameU="visVersion" v:val="VT0(11):26"/>
			</v:userDefs>
			<v:textBlock v:margins="rect(4,4,4,4)" v:tabSpace="42.5197"/>
			<v:textRect cx="63.7795" cy="219.974" width="127.56" height="28.3465"/>
			<g id="shadow25-101" v:groupContext="shadow" v:shadowOffsetX="2.12132" v:shadowOffsetY="-2.12132" v:shadowType="1"
					transform="matrix(1,0,0,1,2.12132,2.12132)" class="st1">
				<path d="M0 234.15 L127.56 234.15 L127.56 205.8 L0 205.8 L0 234.15 Z" class="st8"/>
			</g>
			<path d="M0 234.15 L127.56 234.15 L127.56 205.8 L0 205.8 L0 234.15 Z" class="st11"/>
			<text x="38.09" y="223.57" class="st4" v:langID="2057"><v:paragraph v:horizAlign="1"/><v:tabList/>schemas</text>		</g>
		<g id="shape26-106" v:mID="26" v:groupContext="shape" transform="translate(756.266,-145.86)">
			<title>Rectangle.2184</title>
			<desc>documentation</desc>
			<v:userDefs>
				<v:ud v:nameU="visVersion" v:val="VT0(11):26"/>
			</v:userDefs>
			<v:textBlock v:margins="rect(4,4,4,4)" v:tabSpace="42.5197"/>
			<v:textRect cx="63.7795" cy="219.974" width="127.56" height="28.3465"/>
			<g id="shadow26-107" v:groupContext="shadow" v:shadowOffsetX="2.12132" v:shadowOffsetY="-2.12132" v:shadowType="1"
					transform="matrix(1,0,0,1,2.12132,2.12132)" class="st1">
				<path d="M0 234.15 L127.56 234.15 L127.56 205.8 L0 205.8 L0 234.15 Z" class="st8"/>
			</g>
			<path d="M0 234.15 L127.56 234.15 L127.56 205.8 L0 205.8 L0 234.15 Z" class="st11"/>
			<text x="20.78" y="223.57" class="st4" v:langID="2057"><v:paragraph v:horizAlign="1"/><v:tabList/>documentation</text>		</g>
		<g id="shape27-112" v:mID="27" v:groupContext="shape" transform="translate(585.898,59.9409) rotate(-90)">
			<title>Sheet.27</title>
			<path d="M0 234.15 L14.17 234.15" class="st6"/>
		</g>
		<g id="shape28-115" v:mID="28" v:groupContext="shape" transform="translate(469.709,-12.4632)">
			<title>Rectangle.2186</title>
			<desc>file1.pdf</desc>
			<v:userDefs>
				<v:ud v:nameU="visVersion" v:val="VT0(11):26"/>
			</v:userDefs>
			<v:textBlock v:margins="rect(4,4,4,4)" v:tabSpace="42.5197"/>
			<v:textRect cx="45.6115" cy="223.517" width="91.23" height="21.2598"/>
			<g id="shadow28-116" v:groupContext="shadow" v:shadowOffsetX="2.12132" v:shadowOffsetY="-2.12132" v:shadowType="1"
					transform="matrix(1,0,0,1,2.12132,2.12132)" class="st1">
				<rect x="0" y="212.887" width="91.2231" height="21.2598" class="st2"/>
			</g>
			<rect x="0" y="212.887" width="91.2231" height="21.2598" class="st7"/>
			<text x="22.61" y="227.12" class="st10" v:langID="2057"><v:paragraph v:horizAlign="1"/><v:tabList/>file1.pdf</text>		</g>
		<g id="shape29-121" v:mID="29" v:groupContext="shape" transform="translate(281.174,162.369) rotate(-90)">
			<title>Sheet.29</title>
			<path d="M0 234.15 L14.9 234.15" class="st6"/>
		</g>
		<g id="shape30-124" v:mID="30" v:groupContext="shape" transform="translate(469.967,-43.4317)">
			<title>Rectangle.2188</title>
			<desc>Data</desc>
			<v:userDefs>
				<v:ud v:nameU="visVersion" v:val="VT0(11):26"/>
			</v:userDefs>
			<v:textBlock v:margins="rect(4,4,4,4)" v:tabSpace="42.5197"/>
			<v:textRect cx="45.3543" cy="219.974" width="90.71" height="28.3465"/>
			<g id="shadow30-125" v:groupContext="shadow" v:shadowOffsetX="2.12132" v:shadowOffsetY="-2.12132" v:shadowType="1"
					transform="matrix(1,0,0,1,2.12132,2.12132)" class="st1">
				<rect x="0" y="205.8" width="90.7087" height="28.3465" class="st2"/>
			</g>
			<rect x="0" y="205.8" width="90.7087" height="28.3465" class="st3"/>
			<text x="32.35" y="223.57" class="st10" v:langID="2057"><v:paragraph v:horizAlign="1"/><v:tabList/>Data</text>		</g>
		<g id="shape31-130" v:mID="31" v:groupContext="shape" transform="translate(281.174,119.136) rotate(-90)">
			<title>Sheet.31</title>
			<path d="M0 234.15 L30.85 234.15" class="st6"/>
		</g>
		<g id="shape32-133" v:mID="32" v:groupContext="shape" transform="translate(281.174,200.424) rotate(-90)">
			<title>Sheet.32</title>
			<path d="M0 234.15 L9.71 234.15" class="st6"/>
		</g>
		<g id="shape33-136" v:mID="33" v:groupContext="shape" transform="translate(295.636,-87.1325)">
			<title>Rectangle.2191</title>
			<desc>other</desc>
			<v:userDefs>
				<v:ud v:nameU="visVersion" v:val="VT0(11):26"/>
			</v:userDefs>
			<v:textBlock v:margins="rect(4,4,4,4)" v:tabSpace="42.5197"/>
			<v:textRect cx="63.7795" cy="219.974" width="127.56" height="28.3465"/>
			<g id="shadow33-137" v:groupContext="shadow" v:shadowOffsetX="2.12132" v:shadowOffsetY="-2.12132" v:shadowType="1"
					transform="matrix(1,0,0,1,2.12132,2.12132)" class="st1">
				<path d="M0 234.15 L127.56 234.15 L127.56 205.8 L0 205.8 L0 234.15 Z" class="st8"/>
			</g>
			<path d="M0 234.15 L127.56 234.15 L127.56 205.8 L0 205.8 L0 234.15 Z" class="st11"/>
			<text x="48.78" y="223.57" class="st4" v:langID="2057"><v:paragraph v:horizAlign="1"/><v:tabList/>other</text>		</g>
		<g id="shape34-142" v:mID="34" v:groupContext="shape" transform="translate(54.7774,106.444) rotate(-91.2795)">
			<title>Sheet.34</title>
			<path d="M0 234.15 L14.18 234.15" class="st6"/>
		</g>
		<g id="shape35-145" v:mID="35" v:groupContext="shape" transform="translate(12.1713,-88.4076)">
			<title>Rectangle.2193</title>
			<desc>descriptive</desc>
			<v:userDefs>
				<v:ud v:nameU="visVersion" v:val="VT0(11):26"/>
			</v:userDefs>
			<v:textBlock v:margins="rect(4,4,4,4)" v:tabSpace="42.5197"/>
			<v:textRect cx="63.7795" cy="219.978" width="127.56" height="28.3378"/>
			<g id="shadow35-146" v:groupContext="shadow" v:shadowOffsetX="2.12132" v:shadowOffsetY="-2.12132" v:shadowType="1"
					transform="matrix(1,0,0,1,2.12132,2.12132)" class="st1">
				<path d="M0 234.15 L127.56 234.15 L127.56 205.81 L0 205.81 L0 234.15 Z" class="st8"/>
			</g>
			<path d="M0 234.15 L127.56 234.15 L127.56 205.81 L0 205.81 L0 234.15 Z" class="st11"/>
			<text x="32.1" y="223.58" class="st4" v:langID="2057"><v:paragraph v:horizAlign="1"/><v:tabList/>descriptive</text>		</g>
		<g id="shape36-151" v:mID="36" v:groupContext="shape" transform="translate(2.25,-12.4632)">
			<title>Ellipse.2194</title>
			<v:userDefs>
				<v:ud v:nameU="visVersion" v:val="VT0(15):26"/>
			</v:userDefs>
			<path d="M0 161.86 A75.1181 72.2835 0 1 1 150.24 161.86 A75.1181 72.2835 0 1 1 0 161.86 Z" class="st12"/>
		</g>
	</g>
</svg>
