<?xml version="1.0" encoding="UTF-8" standalone="no"?>
<!DOCTYPE svg PUBLIC "-//W3C//DTD SVG 1.1//EN" "http://www.w3.org/Graphics/SVG/1.1/DTD/svg11.dtd">
<!-- Generated by Microsoft Visio, SVG Export Fig 7 CSIP.svg Page-1 -->
<svg xmlns="http://www.w3.org/2000/svg" xmlns:xlink="http://www.w3.org/1999/xlink" xmlns:ev="http://www.w3.org/2001/xml-events"
		xmlns:v="http://schemas.microsoft.com/visio/2003/SVGExtensions/" width="14.7798in" height="5.0357in"
		viewBox="0 0 1064.15 362.571" xml:space="preserve" color-interpolation-filters="sRGB" class="st8">
	<v:documentProperties v:langID="2057" v:metric="true" v:viewMarkup="false"/>

	<style type="text/css">
	<![CDATA[
		.st1 {visibility:visible}
		.st2 {fill:#000000;fill-opacity:0.4;filter:url(#filter_2.6666667461395);stroke:#000000;stroke-linecap:round;stroke-linejoin:round;stroke-opacity:0.4}
		.st3 {fill:#c6d8f0;stroke:#000000;stroke-linecap:round;stroke-linejoin:round;stroke-width:0.24}
		.st4 {fill:#000000;font-family:Arial;font-size:1.00001em;font-weight:bold}
		.st5 {font-size:1em}
		.st6 {stroke:#000000;stroke-dasharray:14,10;stroke-linecap:round;stroke-linejoin:round;stroke-width:2}
		.st7 {stroke:#000000;stroke-linecap:round;stroke-linejoin:round;stroke-width:2.25}
		.st8 {fill:none;fill-rule:evenodd;font-size:12px;overflow:visible;stroke-linecap:square;stroke-miterlimit:3}
	]]>
	</style>

	<defs id="Filters">
		<filter id="filter_2.6666667461395">
			<feGaussianBlur stdDeviation="2.6666667461395"/>
		</filter>
	</defs>
	<g v:mID="0" v:index="1" v:groupContext="foregroundPage">
		<title>Page-1</title>
		<v:pageProperties v:drawingScale="0.0393701" v:pageScale="0.0393701" v:drawingUnits="24" v:shadowOffsetX="8.50394"
				v:shadowOffsetY="-8.50394"/>
		<g id="shape1-1" v:mID="1" v:groupContext="shape" transform="translate(427.196,-318.052)">
			<title>Rectangle.1920</title>
			<desc>Information package</desc>
			<v:userDefs>
				<v:ud v:nameU="visVersion" v:val="VT0(11):26"/>
			</v:userDefs>
			<v:textBlock v:margins="rect(4,4,4,4)" v:tabSpace="42.5197"/>
			<v:textRect cx="63.7795" cy="341.311" width="127.56" height="42.5197"/>
			<g id="shadow1-2" v:groupContext="shadow" v:shadowOffsetX="2.12132" v:shadowOffsetY="-2.12132" v:shadowType="1"
					transform="matrix(1,0,0,1,2.12132,2.12132)" class="st1">
				<rect x="0" y="320.051" width="127.559" height="42.5197" class="st2"/>
			</g>
			<rect x="0" y="320.051" width="127.559" height="42.5197" class="st3"/>
			<text x="30.78" y="337.71" class="st4" v:langID="2057"><v:paragraph v:horizAlign="1"/><v:tabList/>Information         <tspan
						x="39.76" dy="1.2em" class="st5">package</tspan></text>		</g>
		<g id="shape2-8" v:mID="2" v:groupContext="shape" transform="translate(570.864,142.349) rotate(89.8568)">
			<title>Sheet.2</title>
			<path d="M0 362.57 L43 362.57" class="st6"/>
		</g>
		<g id="shape3-11" v:mID="3" v:groupContext="shape" transform="translate(66.0786,-199.151) rotate(0.0477885)">
			<title>Sheet.3</title>
			<path d="M0 362.57 L283.47 362.57" class="st6"/>
		</g>
		<g id="shape4-14" v:mID="4" v:groupContext="shape" transform="translate(207.51,-289.706)">
			<title>Sheet.4</title>
			<path d="M0 362.57 L786.61 362.57" class="st7"/>
		</g>
		<g id="shape5-17" v:mID="5" v:groupContext="shape" transform="translate(156.751,186.251) rotate(-90)">
			<title>Sheet.5</title>
			<path d="M0 362.57 L14.17 362.57" class="st7"/>
		</g>
		<g id="shape6-20" v:mID="6" v:groupContext="shape" transform="translate(129.332,82.5853) rotate(-91.6114)">
			<title>Sheet.6</title>
			<path d="M0 362.57 L27.88 362.57" class="st7"/>
		</g>
		<g id="shape7-23" v:mID="7" v:groupContext="shape" transform="translate(631.554,101.211) rotate(-90)">
			<title>Sheet.7</title>
			<path d="M0 362.57 L28.35 362.57" class="st7"/>
		</g>
		<g id="shape8-26" v:mID="8" v:groupContext="shape" transform="translate(144.515,-219.315)">
			<title>Rectangle.1927</title>
			<desc>metadata</desc>
			<v:userDefs>
				<v:ud v:nameU="visVersion" v:val="VT0(11):26"/>
			</v:userDefs>
			<v:textBlock v:margins="rect(4,4,4,4)" v:tabSpace="42.5197"/>
			<v:textRect cx="63.7795" cy="341.311" width="127.56" height="42.5197"/>
			<g id="shadow8-27" v:groupContext="shadow" v:shadowOffsetX="2.12132" v:shadowOffsetY="-2.12132" v:shadowType="1"
					transform="matrix(1,0,0,1,2.12132,2.12132)" class="st1">
				<rect x="0" y="320.051" width="127.559" height="42.5197" class="st2"/>
			</g>
			<rect x="0" y="320.051" width="127.559" height="42.5197" class="st3"/>
			<text x="37.77" y="344.91" class="st4" v:langID="2057"><v:paragraph v:horizAlign="1"/><v:tabList/>metadata</text>		</g>
		<g id="shape9-32" v:mID="9" v:groupContext="shape" transform="translate(206.357,172.077) rotate(-90)">
			<title>Sheet.9</title>
			<path d="M0 362.57 L28.35 362.57" class="st7"/>
		</g>
		<g id="shape10-35" v:mID="10" v:groupContext="shape" transform="translate(-154.133,110.932) rotate(-91.6114)">
			<title>Sheet.10</title>
			<path d="M0 362.57 L27.88 362.57" class="st7"/>
		</g>
		<g id="shape11-38" v:mID="11" v:groupContext="shape" transform="translate(1.99869,-133.8)">
			<title>Rectangle.1930</title>
			<desc>descriptive</desc>
			<v:userDefs>
				<v:ud v:nameU="visVersion" v:val="VT0(11):26"/>
			</v:userDefs>
			<v:textBlock v:margins="rect(4,4,4,4)" v:tabSpace="42.5197"/>
			<v:textRect cx="63.7795" cy="341.311" width="127.56" height="42.5197"/>
			<g id="shadow11-39" v:groupContext="shadow" v:shadowOffsetX="2.12132" v:shadowOffsetY="-2.12132" v:shadowType="1"
					transform="matrix(1,0,0,1,2.12132,2.12132)" class="st1">
				<rect x="0" y="320.051" width="127.559" height="42.5197" class="st2"/>
			</g>
			<rect x="0" y="320.051" width="127.559" height="42.5197" class="st3"/>
			<text x="31.43" y="344.91" class="st4" v:langID="2057"><v:paragraph v:horizAlign="1"/><v:tabList/>descriptive</text>		</g>
		<g id="shape12-44" v:mID="12" v:groupContext="shape" transform="translate(144.623,-133.792)">
			<title>Rectangle.1931</title>
			<desc>preservation</desc>
			<v:userDefs>
				<v:ud v:nameU="visVersion" v:val="VT0(11):26"/>
			</v:userDefs>
			<v:textBlock v:margins="rect(4,4,4,4)" v:tabSpace="42.5197"/>
			<v:textRect cx="63.7795" cy="341.311" width="127.56" height="42.5197"/>
			<g id="shadow12-45" v:groupContext="shadow" v:shadowOffsetX="2.12132" v:shadowOffsetY="-2.12132" v:shadowType="1"
					transform="matrix(1,0,0,1,2.12132,2.12132)" class="st1">
				<rect x="0" y="320.051" width="127.559" height="42.5197" class="st2"/>
			</g>
			<rect x="0" y="320.051" width="127.559" height="42.5197" class="st3"/>
			<text x="27.43" y="344.91" class="st4" v:langID="2057"><v:paragraph v:horizAlign="1"/><v:tabList/>preservation</text>		</g>
		<g id="shape13-50" v:mID="13" v:groupContext="shape" transform="translate(285.463,-133.8)">
			<title>Rectangle.1932</title>
			<desc>other</desc>
			<v:userDefs>
				<v:ud v:nameU="visVersion" v:val="VT0(11):26"/>
			</v:userDefs>
			<v:textBlock v:margins="rect(4,4,4,4)" v:tabSpace="42.5197"/>
			<v:textRect cx="63.7795" cy="341.311" width="127.56" height="42.5197"/>
			<g id="shadow13-51" v:groupContext="shadow" v:shadowOffsetX="2.12132" v:shadowOffsetY="-2.12132" v:shadowType="1"
					transform="matrix(1,0,0,1,2.12132,2.12132)" class="st1">
				<rect x="0" y="320.051" width="127.559" height="42.5197" class="st2"/>
			</g>
			<rect x="0" y="320.051" width="127.559" height="42.5197" class="st3"/>
			<text x="47.78" y="344.91" class="st4" v:langID="2057"><v:paragraph v:horizAlign="1"/><v:tabList/>other</text>		</g>
		<g id="shape14-56" v:mID="14" v:groupContext="shape" transform="translate(455.542,-133.8)">
			<title>Rectangle.1933</title>
			<desc>representationID</desc>
			<v:userDefs>
				<v:ud v:nameU="visVersion" v:val="VT0(11):26"/>
			</v:userDefs>
			<v:textBlock v:margins="rect(4,4,4,4)" v:tabSpace="42.5197"/>
			<v:textRect cx="63.7795" cy="341.311" width="127.56" height="42.5197"/>
			<g id="shadow14-57" v:groupContext="shadow" v:shadowOffsetX="2.12132" v:shadowOffsetY="-2.12132" v:shadowType="1"
					transform="matrix(1,0,0,1,2.12132,2.12132)" class="st1">
				<rect x="0" y="320.051" width="127.559" height="42.5197" class="st2"/>
			</g>
			<rect x="0" y="320.051" width="127.559" height="42.5197" class="st3"/>
			<text x="14.1" y="344.91" class="st4" v:langID="2057"><v:paragraph v:horizAlign="1"/><v:tabList/>representationID</text>		</g>
		<g id="shape15-62" v:mID="15" v:groupContext="shape" transform="translate(711.814,163.662) rotate(90.001)">
			<title>Sheet.15</title>
			<path d="M0 362.57 L22.59 362.57" class="st6"/>
		</g>
		<g id="shape16-65" v:mID="16" v:groupContext="shape" transform="translate(428.347,163.387) rotate(89.9949)">
			<title>Sheet.16</title>
			<path d="M0 362.57 L22.83 362.57" class="st6"/>
		</g>
		<g id="shape17-68" v:mID="17" v:groupContext="shape" transform="translate(505.148,-218.84)">
			<title>Rectangle.1936</title>
			<desc>representations</desc>
			<v:userDefs>
				<v:ud v:nameU="visVersion" v:val="VT0(11):26"/>
			</v:userDefs>
			<v:textBlock v:margins="rect(4,4,4,4)" v:tabSpace="42.5197"/>
			<v:textRect cx="63.7795" cy="341.311" width="127.56" height="42.5197"/>
			<g id="shadow17-69" v:groupContext="shadow" v:shadowOffsetX="2.12132" v:shadowOffsetY="-2.12132" v:shadowType="1"
					transform="matrix(1,0,0,1,2.12132,2.12132)" class="st1">
				<rect x="0" y="320.051" width="127.559" height="42.5197" class="st2"/>
			</g>
			<rect x="0" y="320.051" width="127.559" height="42.5197" class="st3"/>
			<text x="16.77" y="344.91" class="st4" v:langID="2057"><v:paragraph v:horizAlign="1"/><v:tabList/>representations</text>		</g>
		<g id="shape18-74" v:mID="18" v:groupContext="shape" transform="translate(646.881,-218.84)">
			<title>Rectangle.1937</title>
			<desc>schemas</desc>
			<v:userDefs>
				<v:ud v:nameU="visVersion" v:val="VT0(11):26"/>
			</v:userDefs>
			<v:textBlock v:margins="rect(4,4,4,4)" v:tabSpace="42.5197"/>
			<v:textRect cx="63.7795" cy="341.311" width="127.56" height="42.5197"/>
			<g id="shadow18-75" v:groupContext="shadow" v:shadowOffsetX="2.12132" v:shadowOffsetY="-2.12132" v:shadowType="1"
					transform="matrix(1,0,0,1,2.12132,2.12132)" class="st1">
				<rect x="0" y="320.051" width="127.559" height="42.5197" class="st2"/>
			</g>
			<rect x="0" y="320.051" width="127.559" height="42.5197" class="st3"/>
			<text x="37.43" y="344.91" class="st4" v:langID="2057"><v:paragraph v:horizAlign="1"/><v:tabList/>schemas</text>		</g>
		<g id="shape19-80" v:mID="19" v:groupContext="shape" transform="translate(788.613,-218.84)">
			<title>Rectangle.1938</title>
			<desc>documentation</desc>
			<v:userDefs>
				<v:ud v:nameU="visVersion" v:val="VT0(11):26"/>
			</v:userDefs>
			<v:textBlock v:margins="rect(4,4,4,4)" v:tabSpace="42.5197"/>
			<v:textRect cx="63.7795" cy="341.311" width="127.56" height="42.5197"/>
			<g id="shadow19-81" v:groupContext="shadow" v:shadowOffsetX="2.12132" v:shadowOffsetY="-2.12132" v:shadowType="1"
					transform="matrix(1,0,0,1,2.12132,2.12132)" class="st1">
				<rect x="0" y="320.051" width="127.559" height="42.5197" class="st2"/>
			</g>
			<rect x="0" y="320.051" width="127.559" height="42.5197" class="st3"/>
			<text x="20.11" y="344.91" class="st4" v:langID="2057"><v:paragraph v:horizAlign="1"/><v:tabList/>documentation</text>		</g>
		<g id="shape20-86" v:mID="20" v:groupContext="shape" transform="translate(930.345,-218.84)">
			<title>Rectangle.1939</title>
			<desc>...</desc>
			<v:userDefs>
				<v:ud v:nameU="visVersion" v:val="VT0(11):26"/>
			</v:userDefs>
			<v:textBlock v:margins="rect(4,4,4,4)" v:tabSpace="42.5197"/>
			<v:textRect cx="63.7795" cy="341.311" width="127.56" height="42.5197"/>
			<g id="shadow20-87" v:groupContext="shadow" v:shadowOffsetX="2.12132" v:shadowOffsetY="-2.12132" v:shadowType="1"
					transform="matrix(1,0,0,1,2.12132,2.12132)" class="st1">
				<rect x="0" y="320.051" width="127.559" height="42.5197" class="st2"/>
			</g>
			<rect x="0" y="320.051" width="127.559" height="42.5197" class="st3"/>
			<text x="58.78" y="344.91" class="st4" v:langID="2057"><v:paragraph v:horizAlign="1"/><v:tabList/>...</text>		</g>
		<g id="shape21-92" v:mID="21" v:groupContext="shape" transform="translate(490.975,-91.2807)">
			<title>Rectangle.1940</title>
			<desc>data</desc>
			<v:userDefs>
				<v:ud v:nameU="visVersion" v:val="VT0(11):26"/>
			</v:userDefs>
			<v:textBlock v:margins="rect(4,4,4,4)" v:tabSpace="42.5197"/>
			<v:textRect cx="46.063" cy="348.397" width="92.13" height="28.3465"/>
			<g id="shadow21-93" v:groupContext="shadow" v:shadowOffsetX="2.12132" v:shadowOffsetY="-2.12132" v:shadowType="1"
					transform="matrix(1,0,0,1,2.12132,2.12132)" class="st1">
				<rect x="0" y="334.224" width="92.126" height="28.3465" class="st2"/>
			</g>
			<rect x="0" y="334.224" width="92.126" height="28.3465" class="st3"/>
			<text x="33.06" y="352" class="st4" v:langID="2057"><v:paragraph v:horizAlign="1"/><v:tabList/>data</text>		</g>
		<g id="shape22-98" v:mID="22" v:groupContext="shape" transform="translate(490.975,-48.761)">
			<title>Rectangle.1941</title>
			<desc>metadata</desc>
			<v:userDefs>
				<v:ud v:nameU="visVersion" v:val="VT0(11):26"/>
			</v:userDefs>
			<v:textBlock v:margins="rect(4,4,4,4)" v:tabSpace="42.5197"/>
			<v:textRect cx="46.063" cy="348.397" width="92.13" height="28.3465"/>
			<g id="shadow22-99" v:groupContext="shadow" v:shadowOffsetX="2.12132" v:shadowOffsetY="-2.12132" v:shadowType="1"
					transform="matrix(1,0,0,1,2.12132,2.12132)" class="st1">
				<rect x="0" y="334.224" width="92.126" height="28.3465" class="st2"/>
			</g>
			<rect x="0" y="334.224" width="92.126" height="28.3465" class="st3"/>
			<text x="20.06" y="352" class="st4" v:langID="2057"><v:paragraph v:horizAlign="1"/><v:tabList/>metadata</text>		</g>
		<g id="shape23-104" v:mID="23" v:groupContext="shape" transform="translate(490.975,-6.24131)">
			<title>Rectangle.1942</title>
			<desc>...</desc>
			<v:userDefs>
				<v:ud v:nameU="visVersion" v:val="VT0(11):26"/>
			</v:userDefs>
			<v:textBlock v:margins="rect(4,4,4,4)" v:tabSpace="42.5197"/>
			<v:textRect cx="46.063" cy="348.397" width="92.13" height="28.3465"/>
			<g id="shadow23-105" v:groupContext="shadow" v:shadowOffsetX="2.12132" v:shadowOffsetY="-2.12132" v:shadowType="1"
					transform="matrix(1,0,0,1,2.12132,2.12132)" class="st1">
				<rect x="0" y="334.224" width="92.126" height="28.3465" class="st2"/>
			</g>
			<rect x="0" y="334.224" width="92.126" height="28.3465" class="st3"/>
			<text x="41.06" y="352" class="st4" v:langID="2057"><v:paragraph v:horizAlign="1"/><v:tabList/>...</text>		</g>
		<g id="shape24-110" v:mID="24" v:groupContext="shape" transform="translate(114.231,342.156) rotate(-90)">
			<title>Sheet.24</title>
			<path d="M0 362.57 L113.39 362.57" class="st7"/>
		</g>
		<g id="shape25-113" v:mID="25" v:groupContext="shape" transform="translate(661.054,534.648) rotate(180)">
			<title>Sheet.25</title>
			<path d="M0 362.57 L141.73 362.57" class="st7"/>
		</g>
		<g id="shape26-116" v:mID="26" v:groupContext="shape" transform="translate(298.483,186.251) rotate(-90)">
			<title>Sheet.26</title>
			<path d="M0 362.57 L14.17 362.57" class="st7"/>
		</g>
		<g id="shape27-119" v:mID="27" v:groupContext="shape" transform="translate(206.357,101.211) rotate(-90)">
			<title>Sheet.27</title>
			<path d="M0 362.57 L28.35 362.57" class="st7"/>
		</g>
		<g id="shape28-122" v:mID="28" v:groupContext="shape" transform="translate(490.975,704.727) rotate(180)">
			<title>Sheet.28</title>
			<path d="M0 362.57 L14.17 362.57" class="st7"/>
		</g>
		<g id="shape29-125" v:mID="29" v:groupContext="shape" transform="translate(348.089,101.211) rotate(-90)">
			<title>Sheet.29</title>
			<path d="M0 362.57 L28.35 362.57" class="st7"/>
		</g>
		<g id="shape30-128" v:mID="30" v:groupContext="shape" transform="translate(1214.96,72.8648) rotate(90)">
			<title>Sheet.30</title>
			<path d="M0 362.57 L28.35 362.57" class="st7"/>
		</g>
		<g id="shape31-131" v:mID="31" v:groupContext="shape" transform="translate(490.975,662.207) rotate(180)">
			<title>Sheet.31</title>
			<path d="M0 362.57 L14.17 362.57" class="st7"/>
		</g>
		<g id="shape32-134" v:mID="32" v:groupContext="shape" transform="translate(490.975,619.687) rotate(180)">
			<title>Sheet.32</title>
			<path d="M0 362.57 L14.17 362.57" class="st7"/>
		</g>
		<g id="shape33-137" v:mID="33" v:groupContext="shape" transform="translate(597.274,-133.8)">
			<title>Rectangle.1985</title>
			<desc>representationID</desc>
			<v:userDefs>
				<v:ud v:nameU="visVersion" v:val="VT0(11):26"/>
			</v:userDefs>
			<v:textBlock v:margins="rect(4,4,4,4)" v:tabSpace="42.5197"/>
			<v:textRect cx="63.7795" cy="341.311" width="127.56" height="42.5197"/>
			<g id="shadow33-138" v:groupContext="shadow" v:shadowOffsetX="2.12132" v:shadowOffsetY="-2.12132" v:shadowType="1"
					transform="matrix(1,0,0,1,2.12132,2.12132)" class="st1">
				<rect x="0" y="320.051" width="127.559" height="42.5197" class="st2"/>
			</g>
			<rect x="0" y="320.051" width="127.559" height="42.5197" class="st3"/>
			<text x="14.1" y="344.91" class="st4" v:langID="2057"><v:paragraph v:horizAlign="1"/><v:tabList/>representationID</text>		</g>
		<g id="shape34-143" v:mID="34" v:groupContext="shape" transform="translate(632.707,-91.2807)">
			<title>Rectangle.1986</title>
			<desc>data</desc>
			<v:userDefs>
				<v:ud v:nameU="visVersion" v:val="VT0(11):26"/>
			</v:userDefs>
			<v:textBlock v:margins="rect(4,4,4,4)" v:tabSpace="42.5197"/>
			<v:textRect cx="46.063" cy="348.397" width="92.13" height="28.3465"/>
			<g id="shadow34-144" v:groupContext="shadow" v:shadowOffsetX="2.12132" v:shadowOffsetY="-2.12132" v:shadowType="1"
					transform="matrix(1,0,0,1,2.12132,2.12132)" class="st1">
				<rect x="0" y="334.224" width="92.126" height="28.3465" class="st2"/>
			</g>
			<rect x="0" y="334.224" width="92.126" height="28.3465" class="st3"/>
			<text x="33.06" y="352" class="st4" v:langID="2057"><v:paragraph v:horizAlign="1"/><v:tabList/>data</text>		</g>
		<g id="shape35-149" v:mID="35" v:groupContext="shape" transform="translate(632.707,-48.761)">
			<title>Rectangle.1987</title>
			<desc>metadata</desc>
			<v:userDefs>
				<v:ud v:nameU="visVersion" v:val="VT0(11):26"/>
			</v:userDefs>
			<v:textBlock v:margins="rect(4,4,4,4)" v:tabSpace="42.5197"/>
			<v:textRect cx="46.063" cy="348.397" width="92.13" height="28.3465"/>
			<g id="shadow35-150" v:groupContext="shadow" v:shadowOffsetX="2.12132" v:shadowOffsetY="-2.12132" v:shadowType="1"
					transform="matrix(1,0,0,1,2.12132,2.12132)" class="st1">
				<rect x="0" y="334.224" width="92.126" height="28.3465" class="st2"/>
			</g>
			<rect x="0" y="334.224" width="92.126" height="28.3465" class="st3"/>
			<text x="20.06" y="352" class="st4" v:langID="2057"><v:paragraph v:horizAlign="1"/><v:tabList/>metadata</text>		</g>
		<g id="shape36-155" v:mID="36" v:groupContext="shape" transform="translate(632.707,-6.24131)">
			<title>Rectangle.1988</title>
			<desc>...</desc>
			<v:userDefs>
				<v:ud v:nameU="visVersion" v:val="VT0(11):26"/>
			</v:userDefs>
			<v:textBlock v:margins="rect(4,4,4,4)" v:tabSpace="42.5197"/>
			<v:textRect cx="46.063" cy="348.397" width="92.13" height="28.3465"/>
			<g id="shadow36-156" v:groupContext="shadow" v:shadowOffsetX="2.12132" v:shadowOffsetY="-2.12132" v:shadowType="1"
					transform="matrix(1,0,0,1,2.12132,2.12132)" class="st1">
				<rect x="0" y="334.224" width="92.126" height="28.3465" class="st2"/>
			</g>
			<rect x="0" y="334.224" width="92.126" height="28.3465" class="st3"/>
			<text x="41.06" y="352" class="st4" v:langID="2057"><v:paragraph v:horizAlign="1"/><v:tabList/>...</text>		</g>
		<g id="shape37-161" v:mID="37" v:groupContext="shape" transform="translate(255.963,342.156) rotate(-90)">
			<title>Sheet.37</title>
			<path d="M0 362.57 L113.39 362.57" class="st7"/>
		</g>
		<g id="shape38-164" v:mID="38" v:groupContext="shape" transform="translate(632.707,704.727) rotate(180)">
			<title>Sheet.38</title>
			<path d="M0 362.57 L14.17 362.57" class="st7"/>
		</g>
		<g id="shape39-167" v:mID="39" v:groupContext="shape" transform="translate(632.707,662.207) rotate(180)">
			<title>Sheet.39</title>
			<path d="M0 362.57 L14.17 362.57" class="st7"/>
		</g>
		<g id="shape40-170" v:mID="40" v:groupContext="shape" transform="translate(632.707,619.687) rotate(180)">
			<title>Sheet.40</title>
			<path d="M0 362.57 L14.17 362.57" class="st7"/>
		</g>
	</g>
</svg>
