<?xml version="1.0" encoding="UTF-8" standalone="no"?>
<!DOCTYPE svg PUBLIC "-//W3C//DTD SVG 1.1//EN" "http://www.w3.org/Graphics/SVG/1.1/DTD/svg11.dtd">
<!-- Generated by Microsoft Visio, SVG Export Fig 9 CSIP.svg Page-1 -->
<svg xmlns="http://www.w3.org/2000/svg" xmlns:xlink="http://www.w3.org/1999/xlink" xmlns:ev="http://www.w3.org/2001/xml-events"
		xmlns:v="http://schemas.microsoft.com/visio/2003/SVGExtensions/" width="9.66169in" height="3.55933in"
		viewBox="0 0 695.642 256.271" xml:space="preserve" color-interpolation-filters="sRGB" class="st9">
	<v:documentProperties v:langID="2057" v:metric="true" v:viewMarkup="false"/>

	<style type="text/css">
	<![CDATA[
		.st1 {visibility:visible}
		.st2 {fill:#000000;fill-opacity:0.4;filter:url(#filter_2.6666667461395);stroke:#000000;stroke-linecap:round;stroke-linejoin:round;stroke-opacity:0.4}
		.st3 {fill:#c6d8f0;stroke:#000000;stroke-linecap:round;stroke-linejoin:round;stroke-width:0.24}
		.st4 {fill:#000000;font-family:Arial;font-size:1.00001em;font-weight:bold}
		.st5 {stroke:#000000;stroke-linecap:round;stroke-linejoin:round;stroke-width:2}
		.st6 {stroke:#000000;stroke-linecap:round;stroke-linejoin:round;stroke-width:2.25}
		.st7 {fill:#f9dc53;stroke:#000000;stroke-linecap:round;stroke-linejoin:round;stroke-width:0.24}
		.st8 {fill:#000000;font-family:Arial;font-size:1.00001em;font-style:italic;font-weight:bold}
		.st9 {fill:none;fill-rule:evenodd;font-size:12px;overflow:visible;stroke-linecap:square;stroke-miterlimit:3}
	]]>
	</style>

	<defs id="Filters">
		<filter id="filter_2.6666667461395">
			<feGaussianBlur stdDeviation="2.6666667461395"/>
		</filter>
	</defs>
	<g v:mID="0" v:index="1" v:groupContext="foregroundPage">
		<title>Page-1</title>
		<v:pageProperties v:drawingScale="0.0393701" v:pageScale="0.0393701" v:drawingUnits="24" v:shadowOffsetX="8.50394"
				v:shadowOffsetY="-8.50394"/>
		<g id="shape1-1" v:mID="1" v:groupContext="shape" transform="translate(250.03,-225.926)">
			<title>Rectangle.2020</title>
			<desc>IP_577ER_223</desc>
			<v:userDefs>
				<v:ud v:nameU="visVersion" v:val="VT0(11):26"/>
			</v:userDefs>
			<v:textBlock v:margins="rect(4,4,4,4)" v:tabSpace="42.5197"/>
			<v:textRect cx="63.7795" cy="242.098" width="127.56" height="28.3465"/>
			<g id="shadow1-2" v:groupContext="shadow" v:shadowOffsetX="2.12132" v:shadowOffsetY="-2.12132" v:shadowType="1"
					transform="matrix(1,0,0,1,2.12132,2.12132)" class="st1">
				<rect x="0" y="227.925" width="127.559" height="28.3465" class="st2"/>
			</g>
			<rect x="0" y="227.925" width="127.559" height="28.3465" class="st3"/>
			<text x="23.08" y="245.7" class="st4" v:langID="2057"><v:paragraph v:horizAlign="1"/><v:tabList/>IP_577ER_223</text>		</g>
		<g id="shape2-7" v:mID="2" v:groupContext="shape" transform="translate(143.58,-155.052) rotate(-0.0035285)">
			<title>Sheet.2</title>
			<path d="M0 256.27 L140.84 256.27" class="st5"/>
		</g>
		<g id="shape3-10" v:mID="3" v:groupContext="shape" transform="translate(65.7782,-211.753)">
			<title>Sheet.3</title>
			<path d="M0 256.27 L460.63 256.27" class="st6"/>
		</g>
		<g id="shape4-13" v:mID="4" v:groupContext="shape" transform="translate(-190.493,58.6916) rotate(-90)">
			<title>Sheet.4</title>
			<path d="M0 256.27 L14.17 256.27" class="st6"/>
		</g>
		<g id="shape5-16" v:mID="5" v:groupContext="shape" transform="translate(79.9514,-112.777)">
			<title>Rectangle.2024</title>
			<desc>descriptive</desc>
			<v:userDefs>
				<v:ud v:nameU="visVersion" v:val="VT0(11):26"/>
			</v:userDefs>
			<v:textBlock v:margins="rect(4,4,4,4)" v:tabSpace="42.5197"/>
			<v:textRect cx="63.7795" cy="242.103" width="127.56" height="28.3378"/>
			<g id="shadow5-17" v:groupContext="shadow" v:shadowOffsetX="2.12132" v:shadowOffsetY="-2.12132" v:shadowType="1"
					transform="matrix(1,0,0,1,2.12132,2.12132)" class="st1">
				<rect x="0" y="227.934" width="127.559" height="28.3378" class="st2"/>
			</g>
			<rect x="0" y="227.934" width="127.559" height="28.3378" class="st3"/>
			<text x="32.1" y="245.7" class="st4" v:langID="2057"><v:paragraph v:horizAlign="1"/><v:tabList/>descriptive</text>		</g>
		<g id="shape6-22" v:mID="6" v:groupContext="shape" transform="translate(220.792,-112.777)">
			<title>Rectangle.2025</title>
			<desc>preservation</desc>
			<v:userDefs>
				<v:ud v:nameU="visVersion" v:val="VT0(11):26"/>
			</v:userDefs>
			<v:textBlock v:margins="rect(4,4,4,4)" v:tabSpace="42.5197"/>
			<v:textRect cx="63.7795" cy="242.098" width="127.56" height="28.3465"/>
			<g id="shadow6-23" v:groupContext="shadow" v:shadowOffsetX="2.12132" v:shadowOffsetY="-2.12132" v:shadowType="1"
					transform="matrix(1,0,0,1,2.12132,2.12132)" class="st1">
				<rect x="0" y="227.925" width="127.559" height="28.3465" class="st2"/>
			</g>
			<rect x="0" y="227.925" width="127.559" height="28.3465" class="st3"/>
			<text x="27.76" y="245.7" class="st4" v:langID="2057"><v:paragraph v:horizAlign="1"/><v:tabList/>preservation</text>		</g>
		<g id="shape7-28" v:mID="7" v:groupContext="shape" transform="translate(540.696,98.7278) rotate(89.4448)">
			<title>Sheet.7</title>
			<path d="M0 256.27 L13.94 256.27" class="st5"/>
		</g>
		<g id="shape8-31" v:mID="8" v:groupContext="shape" transform="translate(462.629,-169.233)">
			<title>Rectangle.2027</title>
			<desc>representations</desc>
			<v:userDefs>
				<v:ud v:nameU="visVersion" v:val="VT0(11):26"/>
			</v:userDefs>
			<v:textBlock v:margins="rect(4,4,4,4)" v:tabSpace="42.5197"/>
			<v:textRect cx="63.7795" cy="242.098" width="127.56" height="28.3465"/>
			<g id="shadow8-32" v:groupContext="shadow" v:shadowOffsetX="2.12132" v:shadowOffsetY="-2.12132" v:shadowType="1"
					transform="matrix(1,0,0,1,2.12132,2.12132)" class="st1">
				<rect x="0" y="227.925" width="127.559" height="28.3465" class="st2"/>
			</g>
			<rect x="0" y="227.925" width="127.559" height="28.3465" class="st3"/>
			<text x="18.76" y="245.7" class="st4" v:langID="2057"><v:paragraph v:horizAlign="1"/><v:tabList/>representations</text>		</g>
		<g id="shape9-37" v:mID="9" v:groupContext="shape" transform="translate(270.137,58.6916) rotate(-90)">
			<title>Sheet.9</title>
			<path d="M0 256.27 L14.17 256.27" class="st6"/>
		</g>
		<g id="shape10-40" v:mID="10" v:groupContext="shape" transform="translate(1.99867,-169.233)">
			<title>Rectangle.2029</title>
			<desc>METS.xml</desc>
			<v:userDefs>
				<v:ud v:nameU="visVersion" v:val="VT0(11):26"/>
			</v:userDefs>
			<v:textBlock v:margins="rect(4,4,4,4)" v:tabSpace="42.5197"/>
			<v:textRect cx="63.7795" cy="242.098" width="127.56" height="28.3465"/>
			<g id="shadow10-41" v:groupContext="shadow" v:shadowOffsetX="2.12132" v:shadowOffsetY="-2.12132" v:shadowType="1"
					transform="matrix(1,0,0,1,2.12132,2.12132)" class="st1">
				<rect x="0" y="227.925" width="127.559" height="28.3465" class="st2"/>
			</g>
			<rect x="0" y="227.925" width="127.559" height="28.3465" class="st7"/>
			<text x="35.11" y="245.7" class="st4" v:langID="2057"><v:paragraph v:horizAlign="1"/><v:tabList/>METS.xml</text>		</g>
		<g id="shape11-46" v:mID="11" v:groupContext="shape" transform="translate(150.818,-169.233)">
			<title>Rectangle.2030</title>
			<desc>metadata</desc>
			<v:userDefs>
				<v:ud v:nameU="visVersion" v:val="VT0(11):26"/>
			</v:userDefs>
			<v:textBlock v:margins="rect(4,4,4,4)" v:tabSpace="42.5197"/>
			<v:textRect cx="63.7795" cy="242.098" width="127.56" height="28.3465"/>
			<g id="shadow11-47" v:groupContext="shadow" v:shadowOffsetX="2.12132" v:shadowOffsetY="-2.12132" v:shadowType="1"
					transform="matrix(1,0,0,1,2.12132,2.12132)" class="st1">
				<rect x="0" y="227.925" width="127.559" height="28.3465" class="st2"/>
			</g>
			<rect x="0" y="227.925" width="127.559" height="28.3465" class="st3"/>
			<text x="37.44" y="245.7" class="st4" v:langID="2057"><v:paragraph v:horizAlign="1"/><v:tabList/>metadata</text>		</g>
		<g id="shape12-52" v:mID="12" v:groupContext="shape" transform="translate(-13.481,167.334) rotate(-88.9311)">
			<title>Sheet.12</title>
			<path d="M0 256.27 L28.62 256.27" class="st6"/>
		</g>
		<g id="shape13-55" v:mID="13" v:groupContext="shape" transform="translate(258.534,428.349) rotate(180)">
			<title>Sheet.13</title>
			<path d="M0 256.27 L14.17 256.27" class="st6"/>
		</g>
		<g id="shape14-58" v:mID="14" v:groupContext="shape" transform="translate(-155.912,170.175) rotate(-89.5641)">
			<title>Sheet.14</title>
			<path d="M0 256.27 L28.63 256.27" class="st6"/>
		</g>
		<g id="shape15-61" v:mID="15" v:groupContext="shape" transform="translate(-41.2938,106.938) rotate(-91.2795)">
			<title>Sheet.15</title>
			<path d="M0 256.27 L14.18 256.27" class="st6"/>
		</g>
		<g id="shape16-64" v:mID="16" v:groupContext="shape" transform="translate(-41.6744,58.6916) rotate(-90)">
			<title>Sheet.16</title>
			<path d="M0 256.27 L14.17 256.27" class="st6"/>
		</g>
		<g id="shape17-67" v:mID="17" v:groupContext="shape" transform="translate(116.802,-70.0209)">
			<title>Rectangle.2036</title>
			<desc>EAD.xml</desc>
			<v:userDefs>
				<v:ud v:nameU="visVersion" v:val="VT0(11):26"/>
			</v:userDefs>
			<v:textBlock v:margins="rect(4,4,4,4)" v:tabSpace="42.5197"/>
			<v:textRect cx="45.3543" cy="242.098" width="90.71" height="28.3465"/>
			<g id="shadow17-68" v:groupContext="shadow" v:shadowOffsetX="2.12132" v:shadowOffsetY="-2.12132" v:shadowType="1"
					transform="matrix(1,0,0,1,2.12132,2.12132)" class="st1">
				<rect x="0" y="227.925" width="90.7087" height="28.3465" class="st2"/>
			</g>
			<rect x="0" y="227.925" width="90.7087" height="28.3465" class="st7"/>
			<text x="20.68" y="245.7" class="st8" v:langID="2057"><v:paragraph v:horizAlign="1"/><v:tabList/>EAD.xml</text>		</g>
		<g id="shape18-73" v:mID="18" v:groupContext="shape" transform="translate(117.537,428.348) rotate(179.836)">
			<title>Sheet.18</title>
			<path d="M0 256.27 L16.45 256.27" class="st6"/>
		</g>
		<g id="shape19-76" v:mID="19" v:groupContext="shape" transform="translate(258.534,-70.0209)">
			<title>Rectangle.2038</title>
			<desc>PREMIS.xml</desc>
			<v:userDefs>
				<v:ud v:nameU="visVersion" v:val="VT0(11):26"/>
			</v:userDefs>
			<v:textBlock v:margins="rect(4,4,4,4)" v:tabSpace="42.5197"/>
			<v:textRect cx="45.3543" cy="242.098" width="90.71" height="28.3465"/>
			<g id="shadow19-77" v:groupContext="shadow" v:shadowOffsetX="2.12132" v:shadowOffsetY="-2.12132" v:shadowType="1"
					transform="matrix(1,0,0,1,2.12132,2.12132)" class="st1">
				<rect x="0" y="227.925" width="90.7087" height="28.3465" class="st2"/>
			</g>
			<rect x="0" y="227.925" width="90.7087" height="28.3465" class="st7"/>
			<text x="10.34" y="245.7" class="st8" v:langID="2057"><v:paragraph v:horizAlign="1"/><v:tabList/>PREMIS.xml</text>		</g>
		<g id="shape20-82" v:mID="20" v:groupContext="shape" transform="translate(399.855,98.7365) rotate(89.4448)">
			<title>Sheet.20</title>
			<path d="M0 256.27 L13.94 256.27" class="st5"/>
		</g>
		<g id="shape21-85" v:mID="21" v:groupContext="shape" transform="translate(455.391,-155.052) rotate(-0.0035285)">
			<title>Sheet.21</title>
			<path d="M0 256.27 L140.84 256.27" class="st5"/>
		</g>
		<g id="shape22-88" v:mID="22" v:groupContext="shape" transform="translate(391.762,-112.777)">
			<title>Rectangle.2041</title>
			<desc>representationID</desc>
			<v:userDefs>
				<v:ud v:nameU="visVersion" v:val="VT0(11):26"/>
			</v:userDefs>
			<v:textBlock v:margins="rect(4,4,4,4)" v:tabSpace="42.5197"/>
			<v:textRect cx="63.7795" cy="242.103" width="127.56" height="28.3378"/>
			<g id="shadow22-89" v:groupContext="shadow" v:shadowOffsetX="2.12132" v:shadowOffsetY="-2.12132" v:shadowType="1"
					transform="matrix(1,0,0,1,2.12132,2.12132)" class="st1">
				<rect x="0" y="227.934" width="127.559" height="28.3378" class="st2"/>
			</g>
			<rect x="0" y="227.934" width="127.559" height="28.3378" class="st3"/>
			<text x="18.76" y="245.7" class="st4" v:langID="2057"><v:paragraph v:horizAlign="1"/><v:tabList/>representationID</text>		</g>
		<g id="shape23-94" v:mID="23" v:groupContext="shape" transform="translate(532.603,-112.777)">
			<title>Rectangle.2042</title>
			<desc>representationID</desc>
			<v:userDefs>
				<v:ud v:nameU="visVersion" v:val="VT0(11):26"/>
			</v:userDefs>
			<v:textBlock v:margins="rect(4,4,4,4)" v:tabSpace="42.5197"/>
			<v:textRect cx="63.7795" cy="242.098" width="127.56" height="28.3465"/>
			<g id="shadow23-95" v:groupContext="shadow" v:shadowOffsetX="2.12132" v:shadowOffsetY="-2.12132" v:shadowType="1"
					transform="matrix(1,0,0,1,2.12132,2.12132)" class="st1">
				<rect x="0" y="227.925" width="127.559" height="28.3465" class="st2"/>
			</g>
			<rect x="0" y="227.925" width="127.559" height="28.3465" class="st3"/>
			<text x="18.76" y="245.7" class="st4" v:langID="2057"><v:paragraph v:horizAlign="1"/><v:tabList/>representationID</text>		</g>
		<g id="shape24-100" v:mID="24" v:groupContext="shape" transform="translate(852.507,98.7278) rotate(89.4448)">
			<title>Sheet.24</title>
			<path d="M0 256.27 L13.94 256.27" class="st5"/>
		</g>
		<g id="shape25-103" v:mID="25" v:groupContext="shape" transform="translate(298.33,167.334) rotate(-88.9311)">
			<title>Sheet.25</title>
			<path d="M0 256.27 L28.62 256.27" class="st6"/>
		</g>
		<g id="shape26-106" v:mID="26" v:groupContext="shape" transform="translate(570.345,428.349) rotate(180)">
			<title>Sheet.26</title>
			<path d="M0 256.27 L14.17 256.27" class="st6"/>
		</g>
		<g id="shape27-109" v:mID="27" v:groupContext="shape" transform="translate(155.899,170.175) rotate(-89.5641)">
			<title>Sheet.27</title>
			<path d="M0 256.27 L28.63 256.27" class="st6"/>
		</g>
		<g id="shape28-112" v:mID="28" v:groupContext="shape" transform="translate(270.517,106.939) rotate(-91.2797)">
			<title>Sheet.28</title>
			<path d="M0 256.27 L14.18 256.27" class="st6"/>
		</g>
		<g id="shape29-115" v:mID="29" v:groupContext="shape" transform="translate(428.613,-70.0209)">
			<title>Rectangle.2048</title>
			<desc>data</desc>
			<v:userDefs>
				<v:ud v:nameU="visVersion" v:val="VT0(11):26"/>
			</v:userDefs>
			<v:textBlock v:margins="rect(4,4,4,4)" v:tabSpace="42.5197"/>
			<v:textRect cx="45.3543" cy="242.098" width="90.71" height="28.3465"/>
			<g id="shadow29-116" v:groupContext="shadow" v:shadowOffsetX="2.12132" v:shadowOffsetY="-2.12132" v:shadowType="1"
					transform="matrix(1,0,0,1,2.12132,2.12132)" class="st1">
				<rect x="0" y="227.925" width="90.7087" height="28.3465" class="st2"/>
			</g>
			<rect x="0" y="227.925" width="90.7087" height="28.3465" class="st3"/>
			<text x="33.02" y="245.7" class="st4" v:langID="2057"><v:paragraph v:horizAlign="1"/><v:tabList/>data</text>		</g>
		<g id="shape30-121" v:mID="30" v:groupContext="shape" transform="translate(428.461,428.349) rotate(-179.966)">
			<title>Sheet.30</title>
			<path d="M0 256.27 L16.45 256.27" class="st6"/>
		</g>
		<g id="shape31-124" v:mID="31" v:groupContext="shape" transform="translate(570.345,-70.0209)">
			<title>Rectangle.2050</title>
			<desc>data</desc>
			<v:userDefs>
				<v:ud v:nameU="visVersion" v:val="VT0(11):26"/>
			</v:userDefs>
			<v:textBlock v:margins="rect(4,4,4,4)" v:tabSpace="42.5197"/>
			<v:textRect cx="45.3543" cy="242.098" width="90.71" height="28.3465"/>
			<g id="shadow31-125" v:groupContext="shadow" v:shadowOffsetX="2.12132" v:shadowOffsetY="-2.12132" v:shadowType="1"
					transform="matrix(1,0,0,1,2.12132,2.12132)" class="st1">
				<rect x="0" y="227.925" width="90.7087" height="28.3465" class="st2"/>
			</g>
			<rect x="0" y="227.925" width="90.7087" height="28.3465" class="st3"/>
			<text x="33.02" y="245.7" class="st4" v:langID="2057"><v:paragraph v:horizAlign="1"/><v:tabList/>data</text>		</g>
		<g id="shape32-130" v:mID="32" v:groupContext="shape" transform="translate(711.666,98.7365) rotate(89.4448)">
			<title>Sheet.32</title>
			<path d="M0 256.27 L13.94 256.27" class="st5"/>
		</g>
		<g id="shape33-133" v:mID="33" v:groupContext="shape" transform="translate(333.916,239.4) rotate(-90)">
			<title>Sheet.33</title>
			<path d="M0 256.27 L53.15 256.27" class="st6"/>
		</g>
		<g id="shape34-136" v:mID="34" v:groupContext="shape" transform="translate(604.361,-38.1311)">
			<title>Rectangle.2099</title>
			<desc>File1.pdf</desc>
			<v:userDefs>
				<v:ud v:nameU="visVersion" v:val="VT0(11):26"/>
			</v:userDefs>
			<v:textBlock v:margins="rect(4,4,4,4)" v:tabSpace="42.5197"/>
			<v:textRect cx="42.5197" cy="245.642" width="85.04" height="21.2598"/>
			<g id="shadow34-137" v:groupContext="shadow" v:shadowOffsetX="2.12132" v:shadowOffsetY="-2.12132" v:shadowType="1"
					transform="matrix(1,0,0,1,2.12132,2.12132)" class="st1">
				<rect x="0" y="235.012" width="85.0394" height="21.2598" class="st2"/>
			</g>
			<rect x="0" y="235.012" width="85.0394" height="21.2598" class="st7"/>
			<text x="17.85" y="249.24" class="st8" v:langID="2057"><v:paragraph v:horizAlign="1"/><v:tabList/>File1.pdf</text>		</g>
		<g id="shape35-142" v:mID="35" v:groupContext="shape" transform="translate(604.361,-6.24133)">
			<title>Rectangle.2100</title>
			<desc>File2.pdf</desc>
			<v:userDefs>
				<v:ud v:nameU="visVersion" v:val="VT0(11):26"/>
			</v:userDefs>
			<v:textBlock v:margins="rect(4,4,4,4)" v:tabSpace="42.5197"/>
			<v:textRect cx="42.5197" cy="245.642" width="85.04" height="21.2598"/>
			<g id="shadow35-143" v:groupContext="shadow" v:shadowOffsetX="2.12132" v:shadowOffsetY="-2.12132" v:shadowType="1"
					transform="matrix(1,0,0,1,2.12132,2.12132)" class="st1">
				<rect x="0" y="235.012" width="85.0394" height="21.2598" class="st2"/>
			</g>
			<rect x="0" y="235.012" width="85.0394" height="21.2598" class="st7"/>
			<text x="17.85" y="249.24" class="st8" v:langID="2057"><v:paragraph v:horizAlign="1"/><v:tabList/>File2.pdf</text>		</g>
		<g id="shape36-148" v:mID="36" v:groupContext="shape" transform="translate(604.361,495.672) rotate(180)">
			<title>Sheet.36</title>
			<path d="M0 256.27 L14.17 256.27" class="st6"/>
		</g>
		<g id="shape37-151" v:mID="37" v:groupContext="shape" transform="translate(604.361,463.782) rotate(180)">
			<title>Sheet.37</title>
			<path d="M0 256.27 L14.17 256.27" class="st6"/>
		</g>
		<g id="shape38-154" v:mID="38" v:groupContext="shape" transform="translate(192.184,239.4) rotate(-90)">
			<title>Sheet.38</title>
			<path d="M0 256.27 L53.15 256.27" class="st6"/>
		</g>
		<g id="shape39-157" v:mID="39" v:groupContext="shape" transform="translate(462.629,-38.1311)">
			<title>Rectangle.2104</title>
			<desc>File1.doc</desc>
			<v:userDefs>
				<v:ud v:nameU="visVersion" v:val="VT0(11):26"/>
			</v:userDefs>
			<v:textBlock v:margins="rect(4,4,4,4)" v:tabSpace="42.5197"/>
			<v:textRect cx="42.5197" cy="245.642" width="85.04" height="21.2598"/>
			<g id="shadow39-158" v:groupContext="shadow" v:shadowOffsetX="2.12132" v:shadowOffsetY="-2.12132" v:shadowType="1"
					transform="matrix(1,0,0,1,2.12132,2.12132)" class="st1">
				<rect x="0" y="235.012" width="85.0394" height="21.2598" class="st2"/>
			</g>
			<rect x="0" y="235.012" width="85.0394" height="21.2598" class="st7"/>
			<text x="16.51" y="249.24" class="st8" v:langID="2057"><v:paragraph v:horizAlign="1"/><v:tabList/>File1.doc</text>		</g>
		<g id="shape40-163" v:mID="40" v:groupContext="shape" transform="translate(462.629,-6.24133)">
			<title>Rectangle.2105</title>
			<desc>File2.doc</desc>
			<v:userDefs>
				<v:ud v:nameU="visVersion" v:val="VT0(11):26"/>
			</v:userDefs>
			<v:textBlock v:margins="rect(4,4,4,4)" v:tabSpace="42.5197"/>
			<v:textRect cx="42.5197" cy="245.642" width="85.04" height="21.2598"/>
			<g id="shadow40-164" v:groupContext="shadow" v:shadowOffsetX="2.12132" v:shadowOffsetY="-2.12132" v:shadowType="1"
					transform="matrix(1,0,0,1,2.12132,2.12132)" class="st1">
				<rect x="0" y="235.012" width="85.0394" height="21.2598" class="st2"/>
			</g>
			<rect x="0" y="235.012" width="85.0394" height="21.2598" class="st7"/>
			<text x="16.51" y="249.24" class="st8" v:langID="2057"><v:paragraph v:horizAlign="1"/><v:tabList/>File2.doc</text>		</g>
		<g id="shape41-169" v:mID="41" v:groupContext="shape" transform="translate(462.629,495.672) rotate(180)">
			<title>Sheet.41</title>
			<path d="M0 256.27 L14.17 256.27" class="st6"/>
		</g>
		<g id="shape42-172" v:mID="42" v:groupContext="shape" transform="translate(462.629,463.782) rotate(180)">
			<title>Sheet.42</title>
			<path d="M0 256.27 L14.17 256.27" class="st6"/>
		</g>
		<g id="shape43-175" v:mID="43" v:groupContext="shape" transform="translate(57.5382,44.5184) rotate(-90)">
			<title>Sheet.43</title>
			<path d="M0 256.27 L14.17 256.27" class="st6"/>
		</g>
	</g>
</svg>
