<?xml version="1.0" encoding="UTF-8" standalone="no"?>
<!DOCTYPE svg PUBLIC "-//W3C//DTD SVG 1.1//EN" "http://www.w3.org/Graphics/SVG/1.1/DTD/svg11.dtd">
<!-- Generated by Microsoft Visio, SVG Export Fig 1 CSIP.svg Page-1 -->
<svg xmlns="http://www.w3.org/2000/svg" xmlns:xlink="http://www.w3.org/1999/xlink" xmlns:ev="http://www.w3.org/2001/xml-events"
		xmlns:v="http://schemas.microsoft.com/visio/2003/SVGExtensions/" width="10.6551in" height="5.71199in"
		viewBox="0 0 767.169 411.264" xml:space="preserve" color-interpolation-filters="sRGB" class="st18">
	<v:documentProperties v:langID="2057" v:metric="true" v:viewMarkup="false"/>

	<style type="text/css">
	<![CDATA[
		.st1 {fill:#f8f8f8;stroke:#000000;stroke-linecap:round;stroke-linejoin:round;stroke-width:0.24}
		.st2 {marker-end:url(#mrkr13-8);stroke:#000000;stroke-linecap:round;stroke-linejoin:round;stroke-width:2.25}
		.st3 {fill:#000000;fill-opacity:1;stroke:#000000;stroke-opacity:1;stroke-width:0.60975609756098}
		.st4 {visibility:visible}
		.st5 {fill:#000000;fill-opacity:0.4;filter:url(#filter_2.6666667461395);stroke:#000000;stroke-linecap:round;stroke-linejoin:round;stroke-opacity:0.4}
		.st6 {fill:#f9dc53;stroke:#000000;stroke-linecap:round;stroke-linejoin:round;stroke-width:0.24}
		.st7 {fill:#000000;font-family:Arial;font-size:1.00001em;font-weight:bold}
		.st8 {font-size:1em}
		.st9 {fill:#c0cfe2;stroke:#000000;stroke-linecap:round;stroke-linejoin:round;stroke-width:0.24}
		.st10 {fill:#92d050;stroke:#000000;stroke-linecap:round;stroke-linejoin:round;stroke-width:0.24}
		.st11 {fill:#000000;font-family:Arial;font-size:1.33333em;font-weight:bold}
		.st12 {stroke:#000000;stroke-dasharray:14,10;stroke-linecap:round;stroke-linejoin:round;stroke-width:2}
		.st13 {stroke:#000000;stroke-linecap:round;stroke-linejoin:round;stroke-width:2.25}
		.st14 {fill:none;marker-end:url(#mrkr13-158);stroke:none;stroke-linecap:round;stroke-linejoin:round;stroke-width:0.72}
		.st15 {fill:#000000;fill-opacity:1;stroke:#000000;stroke-opacity:1;stroke-width:0.22222222222222}
		.st16 {fill:#000000;font-family:Arial;font-size:1.00001em}
		.st17 {fill:none;stroke:none;stroke-linecap:round;stroke-linejoin:round;stroke-width:0.24}
		.st18 {fill:none;fill-rule:evenodd;font-size:12px;overflow:visible;stroke-linecap:square;stroke-miterlimit:3}
	]]>
	</style>

	<defs id="Markers">
		<g id="lend13">
			<path d="M 3 1 L 0 0 L 3 -1 L 3 1 " style="stroke:none"/>
		</g>
		<marker id="mrkr13-8" class="st3" v:arrowType="13" v:arrowSize="0" v:setback="4.92" refX="-4.92" orient="auto"
				markerUnits="strokeWidth" overflow="visible">
			<use xlink:href="#lend13" transform="scale(-1.64,-1.64) "/>
		</marker>
		<marker id="mrkr13-158" class="st15" v:arrowType="13" v:arrowSize="2" v:setback="13.5" refX="-13.5" orient="auto"
				markerUnits="strokeWidth" overflow="visible">
			<use xlink:href="#lend13" transform="scale(-4.5,-4.5) "/>
		</marker>
	</defs>
	<defs id="Filters">
		<filter id="filter_2.6666667461395">
			<feGaussianBlur stdDeviation="2.6666667461395"/>
		</filter>
	</defs>
	<g v:mID="0" v:index="1" v:groupContext="foregroundPage">
		<title>Page-1</title>
		<v:pageProperties v:drawingScale="0.0393701" v:pageScale="0.0393701" v:drawingUnits="24" v:shadowOffsetX="8.50394"
				v:shadowOffsetY="-8.50394"/>
		<g id="shape1-1" v:mID="1" v:groupContext="shape" transform="translate(105.261,-70.9861)">
			<title>Rounded Rectangle.1849</title>
			<v:userDefs>
				<v:ud v:nameU="CTypeTopLeftSnip" v:prompt="" v:val="VT0(0):5"/>
				<v:ud v:nameU="CTypeTopRightSnip" v:prompt="" v:val="VT0(0):5"/>
				<v:ud v:nameU="CTypeBotLeftSnip" v:prompt="" v:val="VT0(0):5"/>
				<v:ud v:nameU="CTypeBotRightSnip" v:prompt="" v:val="VT0(0):5"/>
				<v:ud v:nameU="CornerLockHoriz" v:prompt="" v:val="VT0(1):5"/>
				<v:ud v:nameU="CornerLockVert" v:prompt="" v:val="VT0(1):5"/>
				<v:ud v:nameU="CornerLockDiag" v:prompt="" v:val="VT0(0):5"/>
				<v:ud v:nameU="TopLeftOffset" v:prompt="" v:val="VT0(0.15748031496063):24"/>
				<v:ud v:nameU="TopRightOffset" v:prompt="" v:val="VT0(0.15748031496063):24"/>
				<v:ud v:nameU="BotLeftOffset" v:prompt="" v:val="VT0(0.15748031496063):24"/>
				<v:ud v:nameU="BotRightOffset" v:prompt="" v:val="VT0(0.15748031496063):24"/>
				<v:ud v:nameU="visVersion" v:prompt="" v:val="VT0(15):26"/>
				<v:ud v:nameU="TopLeftOffset" v:prompt="" v:val="VT0(0.75590551181102):1"/>
				<v:ud v:nameU="TopRightOffset" v:prompt="" v:val="VT0(0.75590551181102):1"/>
				<v:ud v:nameU="BotLeftOffset" v:prompt="" v:val="VT0(0.75590551181102):1"/>
				<v:ud v:nameU="BotRightOffset" v:prompt="" v:val="VT0(0.75590551181102):1"/>
			</v:userDefs>
			<path d="M54.43 411.26 L489.83 411.26 A54.4243 54.4243 -180 0 0 544.25 356.84 L544.25 125.53 A54.4243 54.4243 -180 0
						 0 489.83 71.11 L54.43 71.11 A54.4243 54.4243 -180 0 0 -0 125.53 L0 356.84 A54.4243 54.4243 -180 0 0 54.43
						 411.26 Z" class="st1"/>
		</g>
		<g id="shape2-3" v:mID="2" v:groupContext="shape" transform="translate(630.096,-251.79) rotate(25.1148)">
			<title>Sheet.2</title>
			<path d="M0 411.26 L39.02 411.26" class="st2"/>
		</g>
		<g id="shape3-9" v:mID="3" v:groupContext="shape" transform="translate(498.062,-226.892)">
			<title>Rectangle.1851</title>
			<desc>Access</desc>
			<v:userDefs>
				<v:ud v:nameU="visVersion" v:val="VT0(11):26"/>
			</v:userDefs>
			<v:textBlock v:margins="rect(4,4,4,4)" v:tabSpace="42.5197"/>
			<v:textRect cx="63.7795" cy="390.004" width="127.56" height="42.5197"/>
			<g id="shadow3-10" v:groupContext="shadow" v:shadowOffsetX="2.12132" v:shadowOffsetY="-2.12132" v:shadowType="1"
					transform="matrix(1,0,0,1,2.12132,2.12132)" class="st4">
				<rect x="0" y="368.744" width="127.559" height="42.5197" class="st5"/>
			</g>
			<rect x="0" y="368.744" width="127.559" height="42.5197" class="st6"/>
			<text x="42.76" y="393.6" class="st7" v:langID="2057"><v:paragraph v:horizAlign="1"/><v:tabList/>Access</text>		</g>
		<g id="shape4-15" v:mID="4" v:groupContext="shape" transform="translate(299.636,-269.411)">
			<title>Rectangle.1852</title>
			<desc>Data management</desc>
			<v:userDefs>
				<v:ud v:nameU="visVersion" v:val="VT0(11):26"/>
			</v:userDefs>
			<v:textBlock v:margins="rect(4,4,4,4)" v:tabSpace="42.5197"/>
			<v:textRect cx="77.9528" cy="390.004" width="155.91" height="42.5197"/>
			<g id="shadow4-16" v:groupContext="shadow" v:shadowOffsetX="2.12132" v:shadowOffsetY="-2.12132" v:shadowType="1"
					transform="matrix(1,0,0,1,2.12132,2.12132)" class="st4">
				<rect x="0" y="368.744" width="155.906" height="42.5197" class="st5"/>
			</g>
			<rect x="0" y="368.744" width="155.906" height="42.5197" class="st6"/>
			<text x="64.95" y="386.4" class="st7" v:langID="2057"><v:paragraph v:horizAlign="1"/><v:tabList/>Data               <tspan
						x="40.94" dy="1.2em" class="st8">management</tspan></text>		</g>
		<g id="shape5-22" v:mID="5" v:groupContext="shape" transform="translate(313.81,-184.372)">
			<title>Rectangle.1853</title>
			<desc>Archival storage</desc>
			<v:userDefs>
				<v:ud v:nameU="visVersion" v:val="VT0(11):26"/>
			</v:userDefs>
			<v:textBlock v:margins="rect(4,4,4,4)" v:tabSpace="42.5197"/>
			<v:textRect cx="63.7795" cy="390.004" width="127.56" height="42.5197"/>
			<g id="shadow5-23" v:groupContext="shadow" v:shadowOffsetX="2.12132" v:shadowOffsetY="-2.12132" v:shadowType="1"
					transform="matrix(1,0,0,1,2.12132,2.12132)" class="st4">
				<rect x="0" y="368.744" width="127.559" height="42.5197" class="st5"/>
			</g>
			<rect x="0" y="368.744" width="127.559" height="42.5197" class="st6"/>
			<text x="40.1" y="386.4" class="st7" v:langID="2057"><v:paragraph v:horizAlign="1"/><v:tabList/>Archival         <tspan
						x="42.11" dy="1.2em" class="st8">storage</tspan></text>		</g>
		<g id="shape6-29" v:mID="6" v:groupContext="shape" transform="translate(129.558,-99.3326)">
			<title>Rectangle.1854</title>
			<desc>Administration</desc>
			<v:userDefs>
				<v:ud v:nameU="visVersion" v:val="VT0(11):26"/>
			</v:userDefs>
			<v:textBlock v:margins="rect(4,4,4,4)" v:tabSpace="42.5197"/>
			<v:textRect cx="248.031" cy="390.004" width="496.07" height="42.5197"/>
			<g id="shadow6-30" v:groupContext="shadow" v:shadowOffsetX="2.12132" v:shadowOffsetY="-2.12132" v:shadowType="1"
					transform="matrix(1,0,0,1,2.12132,2.12132)" class="st4">
				<rect x="0" y="368.744" width="496.063" height="42.5197" class="st5"/>
			</g>
			<rect x="0" y="368.744" width="496.063" height="42.5197" class="st6"/>
			<text x="205.7" y="393.6" class="st7" v:langID="2057"><v:paragraph v:horizAlign="1"/><v:tabList/>Administration</text>		</g>
		<g id="shape7-35" v:mID="7" v:groupContext="shape" transform="translate(483.888,-177.852)">
			<title>Ellipse.1855</title>
			<desc>AIP</desc>
			<v:userDefs>
				<v:ud v:nameU="visVersion" v:val="VT0(15):26"/>
			</v:userDefs>
			<v:textBlock v:margins="rect(4,4,4,4)" v:tabSpace="42.5197"/>
			<v:textRect cx="21.2598" cy="397.09" width="37.21" height="24.8031"/>
			<g id="shadow7-36" v:groupContext="shadow" v:shadowOffsetX="2.12132" v:shadowOffsetY="-2.12132" v:shadowType="1"
					transform="matrix(1,0,0,1,2.12132,2.12132)" class="st4">
				<path d="M0 397.09 A21.2598 14.1732 0 1 1 42.52 397.09 A21.2598 14.1732 0 0 1 0 397.09 Z" class="st5"/>
			</g>
			<path d="M0 397.09 A21.2598 14.1732 0 1 1 42.52 397.09 A21.2598 14.1732 0 0 1 0 397.09 Z" class="st9"/>
			<text x="11.26" y="400.69" class="st7" v:langID="2057"><v:paragraph v:horizAlign="1"/><v:tabList/>AIP</text>		</g>
		<g id="shape8-41" v:mID="8" v:groupContext="shape" transform="translate(415.16,-197.651) rotate(22.5995)">
			<title>Sheet.8</title>
			<path d="M0 411.26 L50.34 411.26" class="st2"/>
		</g>
		<g id="shape9-46" v:mID="9" v:groupContext="shape" transform="translate(214.597,-177.852)">
			<title>Ellipse.1857</title>
			<desc>AIP</desc>
			<v:userDefs>
				<v:ud v:nameU="visVersion" v:val="VT0(15):26"/>
			</v:userDefs>
			<v:textBlock v:margins="rect(4,4,4,4)" v:tabSpace="42.5197"/>
			<v:textRect cx="21.2598" cy="397.09" width="37.21" height="24.8031"/>
			<g id="shadow9-47" v:groupContext="shadow" v:shadowOffsetX="2.12132" v:shadowOffsetY="-2.12132" v:shadowType="1"
					transform="matrix(1,0,0,1,2.12132,2.12132)" class="st4">
				<path d="M0 397.09 A21.2598 14.1732 0 1 1 42.52 397.09 A21.2598 14.1732 0 0 1 0 397.09 Z" class="st5"/>
			</g>
			<path d="M0 397.09 A21.2598 14.1732 0 1 1 42.52 397.09 A21.2598 14.1732 0 0 1 0 397.09 Z" class="st9"/>
			<text x="11.26" y="400.69" class="st7" v:langID="2057"><v:paragraph v:horizAlign="1"/><v:tabList/>AIP</text>		</g>
		<g id="shape10-52" v:mID="10" v:groupContext="shape" transform="translate(44.5184,-184.372)">
			<title>Ellipse.1858</title>
			<desc>SIP</desc>
			<v:userDefs>
				<v:ud v:nameU="visVersion" v:val="VT0(15):26"/>
			</v:userDefs>
			<v:textBlock v:margins="rect(4,4,4,4)" v:tabSpace="42.5197"/>
			<v:textRect cx="21.2598" cy="397.09" width="37.21" height="24.8031"/>
			<g id="shadow10-53" v:groupContext="shadow" v:shadowOffsetX="2.12132" v:shadowOffsetY="-2.12132" v:shadowType="1"
					transform="matrix(1,0,0,1,2.12132,2.12132)" class="st4">
				<path d="M0 397.09 A21.2598 14.1732 0 1 1 42.52 397.09 A21.2598 14.1732 0 0 1 0 397.09 Z" class="st5"/>
			</g>
			<path d="M0 397.09 A21.2598 14.1732 0 1 1 42.52 397.09 A21.2598 14.1732 0 0 1 0 397.09 Z" class="st9"/>
			<text x="11.59" y="400.69" class="st7" v:langID="2057"><v:paragraph v:horizAlign="1"/><v:tabList/>SIP</text>		</g>
		<g id="shape11-58" v:mID="11" v:groupContext="shape" transform="translate(668.14,-147.734)">
			<title>Ellipse.1859</title>
			<desc>DIP</desc>
			<v:userDefs>
				<v:ud v:nameU="visVersion" v:val="VT0(15):26"/>
			</v:userDefs>
			<v:textBlock v:margins="rect(4,4,4,4)" v:tabSpace="42.5197"/>
			<v:textRect cx="21.2598" cy="397.09" width="37.21" height="24.8031"/>
			<g id="shadow11-59" v:groupContext="shadow" v:shadowOffsetX="2.12132" v:shadowOffsetY="-2.12132" v:shadowType="1"
					transform="matrix(1,0,0,1,2.12132,2.12132)" class="st4">
				<path d="M0 397.09 A21.2598 14.1732 0 1 1 42.52 397.09 A21.2598 14.1732 0 0 1 0 397.09 Z" class="st5"/>
			</g>
			<path d="M0 397.09 A21.2598 14.1732 0 1 1 42.52 397.09 A21.2598 14.1732 0 0 1 0 397.09 Z" class="st9"/>
			<text x="11.26" y="400.69" class="st7" v:langID="2057"><v:paragraph v:horizAlign="1"/><v:tabList/>DIP</text>		</g>
		<g id="shape12-64" v:mID="12" v:groupContext="shape" transform="translate(512.235,-292.089)">
			<title>Ellipse.1860</title>
			<desc>Descriptive information</desc>
			<v:userDefs>
				<v:ud v:nameU="visVersion" v:val="VT0(15):26"/>
			</v:userDefs>
			<v:textBlock v:margins="rect(4,4,4,4)" v:tabSpace="42.5197"/>
			<v:textRect cx="50.6757" cy="387.169" width="88.69" height="42.1654"/>
			<g id="shadow12-65" v:groupContext="shadow" v:shadowOffsetX="2.12132" v:shadowOffsetY="-2.12132" v:shadowType="1"
					transform="matrix(1,0,0,1,2.12132,2.12132)" class="st4">
				<path d="M0 387.17 A50.6757 24.0945 0 1 1 101.35 387.17 A50.6757 24.0945 0 1 1 0 387.17 Z" class="st5"/>
			</g>
			<path d="M0 387.17 A50.6757 24.0945 0 1 1 101.35 387.17 A50.6757 24.0945 0 1 1 0 387.17 Z" class="st9"/>
			<text x="18.33" y="383.57" class="st7" v:langID="2057"><v:paragraph v:horizAlign="1"/><v:tabList/>Descriptive <tspan
						x="17.68" dy="1.2em" class="st8">information</tspan></text>		</g>
		<g id="shape13-71" v:mID="13" v:groupContext="shape" transform="translate(141.592,-292.089)">
			<title>Ellipse.1861</title>
			<desc>Descriptive information</desc>
			<v:userDefs>
				<v:ud v:nameU="visVersion" v:val="VT0(15):26"/>
			</v:userDefs>
			<v:textBlock v:margins="rect(4,4,4,4)" v:tabSpace="42.5197"/>
			<v:textRect cx="50.6757" cy="387.169" width="88.69" height="42.1654"/>
			<g id="shadow13-72" v:groupContext="shadow" v:shadowOffsetX="2.12132" v:shadowOffsetY="-2.12132" v:shadowType="1"
					transform="matrix(1,0,0,1,2.12132,2.12132)" class="st4">
				<path d="M0 387.17 A50.6757 24.0945 0 1 1 101.35 387.17 A50.6757 24.0945 0 1 1 0 387.17 Z" class="st5"/>
			</g>
			<path d="M0 387.17 A50.6757 24.0945 0 1 1 101.35 387.17 A50.6757 24.0945 0 1 1 0 387.17 Z" class="st9"/>
			<text x="18.33" y="383.57" class="st7" v:langID="2057"><v:paragraph v:horizAlign="1"/><v:tabList/>Descriptive <tspan
						x="17.68" dy="1.2em" class="st8">information</tspan></text>		</g>
		<g id="shape14-78" v:mID="14" v:groupContext="shape" transform="translate(-380.257,311.931) rotate(-90)">
			<title>Rectangle.1862</title>
			<desc>Producer</desc>
			<v:userDefs>
				<v:ud v:nameU="visVersion" v:val="VT0(11):26"/>
			</v:userDefs>
			<v:textBlock v:margins="rect(4,4,4,4)" v:tabSpace="42.5197"/>
			<v:textRect cx="148.819" cy="396.76" width="297.64" height="29.0079"/>
			<g id="shadow14-79" v:groupContext="shadow" v:shadowOffsetX="2.12132" v:shadowOffsetY="-2.12132" v:shadowType="1"
					transform="matrix(1,0,0,1,-2.12132,2.12132)" class="st4">
				<rect x="0" y="382.256" width="297.638" height="29.0079" class="st5"/>
			</g>
			<rect x="0" y="382.256" width="297.638" height="29.0079" class="st10"/>
			<text x="113.7" y="401.56" class="st11" v:langID="2057"><v:paragraph v:horizAlign="1"/><v:tabList/>Producer</text>		</g>
		<g id="shape15-84" v:mID="15" v:groupContext="shape" transform="translate(349.664,311.931) rotate(-90)">
			<title>Rectangle.1863</title>
			<desc>Consumer</desc>
			<v:userDefs>
				<v:ud v:nameU="visVersion" v:val="VT0(11):26"/>
			</v:userDefs>
			<v:textBlock v:margins="rect(4,4,4,4)" v:tabSpace="42.5197"/>
			<v:textRect cx="148.819" cy="396.76" width="297.64" height="29.0079"/>
			<g id="shadow15-85" v:groupContext="shadow" v:shadowOffsetX="2.12132" v:shadowOffsetY="-2.12132" v:shadowType="1"
					transform="matrix(1,0,0,1,-2.12132,2.12132)" class="st4">
				<rect x="0" y="382.256" width="297.638" height="29.0079" class="st5"/>
			</g>
			<rect x="0" y="382.256" width="297.638" height="29.0079" class="st10"/>
			<text x="109.26" y="401.56" class="st11" v:langID="2057"><v:paragraph v:horizAlign="1"/><v:tabList/>Consumer</text>		</g>
		<g id="shape16-90" v:mID="16" v:groupContext="shape" transform="translate(690.525,55.7848) rotate(89.8568)">
			<title>Sheet.16</title>
			<path d="M0 411.26 L212.6 411.26" class="st12"/>
		</g>
		<g id="shape17-93" v:mID="17" v:groupContext="shape" transform="translate(859.719,141.852) rotate(90)">
			<title>Sheet.17</title>
			<path d="M0 411.26 L127.56 411.26" class="st12"/>
		</g>
		<g id="shape18-96" v:mID="18" v:groupContext="shape" transform="translate(973.105,184.372) rotate(90)">
			<title>Sheet.18</title>
			<path d="M0 411.26 L85.04 411.26" class="st12"/>
		</g>
		<g id="shape19-99" v:mID="19" v:groupContext="shape" transform="translate(604.544,177.519) rotate(89.0452)">
			<title>Sheet.19</title>
			<path d="M0 411.26 L85.05 411.26" class="st12"/>
		</g>
		<g id="shape20-102" v:mID="20" v:groupContext="shape" transform="translate(303.046,-181.672) rotate(-19.6538)">
			<title>Sheet.20</title>
			<path d="M0 411.26 L52.14 411.26" class="st2"/>
		</g>
		<g id="shape21-107" v:mID="21" v:groupContext="shape" transform="translate(54.3587,-213.122) rotate(-29.5388)">
			<title>Sheet.21</title>
			<path d="M0 411.26 L37.8 411.26" class="st2"/>
		</g>
		<g id="shape22-112" v:mID="22" v:groupContext="shape" transform="translate(31.0066,-248.151)">
			<title>Sheet.22</title>
			<path d="M0 411.26 L87.48 411.26" class="st2"/>
		</g>
		<g id="shape23-117" v:mID="23" v:groupContext="shape" transform="translate(30.3187,-375.391) rotate(-0.0958241)">
			<title>Sheet.23</title>
			<path d="M0 411.26 L190.68 411.26" class="st13"/>
		</g>
		<g id="shape24-120" v:mID="24" v:groupContext="shape" transform="translate(539.894,-375.71) rotate(-0.0958241)">
			<title>Sheet.24</title>
			<path d="M0 411.26 L190.68 411.26" class="st13"/>
		</g>
		<g id="shape25-123" v:mID="25" v:groupContext="shape" transform="translate(25.9795,-119.357) rotate(-0.700369)">
			<title>Sheet.25</title>
			<path d="M0 411.26 L98.56 411.26" class="st13"/>
		</g>
		<g id="shape26-126" v:mID="26" v:groupContext="shape" transform="translate(625.621,-120.592)">
			<title>Sheet.26</title>
			<path d="M0 411.26 L106.24 411.26" class="st13"/>
		</g>
		<g id="shape27-129" v:mID="27" v:groupContext="shape" transform="translate(617.294,-300.592)">
			<title>Sheet.27</title>
			<path d="M0 411.26 L114.63 411.26" class="st13"/>
		</g>
		<g id="shape28-132" v:mID="28" v:groupContext="shape" transform="translate(1028.56,110.671) rotate(90)">
			<title>Sheet.28</title>
			<path d="M0 411.26 L22.77 411.26" class="st2"/>
		</g>
		<g id="shape29-137" v:mID="29" v:groupContext="shape" transform="translate(626.799,-255.541) rotate(0.164106)">
			<title>Sheet.29</title>
			<path d="M0 411.26 L95.23 411.26" class="st2"/>
		</g>
		<g id="shape30-142" v:mID="30" v:groupContext="shape" transform="translate(731.92,581.462) rotate(180)">
			<title>Sheet.30</title>
			<path d="M0 411.26 L95.23 411.26" class="st2"/>
		</g>
		<g id="shape31-147" v:mID="31" v:groupContext="shape" transform="translate(619.951,-198.545)">
			<title>Sheet.31</title>
			<path d="M0 411.26 L111.97 411.26" class="st13"/>
		</g>
		<g id="shape32-150" v:mID="32" v:groupContext="shape" transform="translate(208.688,212.718) rotate(-90)">
			<title>Sheet.32</title>
			<path d="M0 411.26 L17.28 411.26" class="st2"/>
		</g>
		<g id="shape33-155" v:mID="33" v:groupContext="shape" transform="translate(639.794,-300.592)">
			<title>Sheet.33</title>
			<desc>Queries</desc>
			<v:textBlock v:margins="rect(4,4,4,4)" v:tabSpace="42.5197"/>
			<v:textRect cx="42.5197" cy="401.342" width="85.04" height="19.8425"/>
			<rect x="0" y="391.421" width="85.0394" height="19.8425" class="st14"/>
			<text x="21.51" y="404.94" class="st16" v:langID="2057"><v:paragraph v:horizAlign="1"/><v:tabList/>Queries</text>		</g>
		<g id="shape34-160" v:mID="34" v:groupContext="shape" transform="translate(646.881,-215.553)">
			<title>Sheet.34</title>
			<desc>Orders</desc>
			<v:textBlock v:margins="rect(4,4,4,4)" v:tabSpace="42.5197"/>
			<v:textRect cx="35.4331" cy="397.09" width="70.87" height="28.3465"/>
			<rect x="0" y="382.917" width="70.8661" height="28.3465" class="st14"/>
			<text x="17.1" y="400.69" class="st16" v:langID="2057"><v:paragraph v:horizAlign="1"/><v:tabList/>Orders</text>		</g>
		<g id="shape35-164" v:mID="35" v:groupContext="shape" transform="translate(639.794,-269.411)">
			<title>Sheet.35</title>
			<desc>Query responses</desc>
			<v:textBlock v:margins="rect(4,4,4,4)" v:tabSpace="42.5197"/>
			<v:textRect cx="42.5197" cy="407.012" width="85.04" height="8.50394"/>
			<rect x="0" y="402.76" width="85.0394" height="8.50394" class="st14"/>
			<text x="26.18" y="403.41" class="st16" v:langID="2057"><v:paragraph v:horizAlign="1"/><v:tabList/>Query <tspan
						x="14.84" dy="1.2em" class="st8">responses</tspan></text>		</g>
		<g id="shape36-169" v:mID="36" v:groupContext="shape" transform="translate(129.558,-226.892)">
			<title>Rectangle.1884</title>
			<desc>Ingest</desc>
			<v:userDefs>
				<v:ud v:nameU="visVersion" v:val="VT0(11):26"/>
			</v:userDefs>
			<v:textBlock v:margins="rect(4,4,4,4)" v:tabSpace="42.5197"/>
			<v:textRect cx="63.7795" cy="390.004" width="127.56" height="42.5197"/>
			<g id="shadow36-170" v:groupContext="shadow" v:shadowOffsetX="2.12132" v:shadowOffsetY="-2.12132" v:shadowType="1"
					transform="matrix(1,0,0,1,2.12132,2.12132)" class="st4">
				<rect x="0" y="368.744" width="127.559" height="42.5197" class="st5"/>
			</g>
			<rect x="0" y="368.744" width="127.559" height="42.5197" class="st6"/>
			<text x="46.11" y="393.6" class="st7" v:langID="2057"><v:paragraph v:horizAlign="1"/><v:tabList/>Ingest</text>		</g>
		<g id="shape37-175" v:mID="37" v:groupContext="shape" transform="translate(221.684,-354.451)">
			<title>Rectangle.1885</title>
			<desc>Preservation planning</desc>
			<v:userDefs>
				<v:ud v:nameU="visVersion" v:val="VT0(11):26"/>
			</v:userDefs>
			<v:textBlock v:margins="rect(4,4,4,4)" v:tabSpace="42.5197"/>
			<v:textRect cx="159.449" cy="390.004" width="318.9" height="42.5197"/>
			<g id="shadow37-176" v:groupContext="shadow" v:shadowOffsetX="2.12132" v:shadowOffsetY="-2.12132" v:shadowType="1"
					transform="matrix(1,0,0,1,2.12132,2.12132)" class="st4">
				<rect x="0" y="368.744" width="318.898" height="42.5197" class="st5"/>
			</g>
			<rect x="0" y="368.744" width="318.898" height="42.5197" class="st6"/>
			<text x="96.43" y="393.6" class="st7" v:langID="2057"><v:paragraph v:horizAlign="1"/><v:tabList/>Preservation planning</text>		</g>
		<g id="shape38-181" v:mID="38" v:groupContext="shape" transform="translate(129.558,-0.12)">
			<title>Rectangle.1886</title>
			<desc>Management</desc>
			<v:textBlock v:margins="rect(4,4,4,4)" v:tabSpace="42.5197"/>
			<v:textRect cx="248.031" cy="390.004" width="496.07" height="42.5197"/>
			<rect x="0" y="368.744" width="496.063" height="42.5197" class="st17"/>
			<text x="199.13" y="394.8" class="st11" v:langID="2057"><v:paragraph v:horizAlign="1"/><v:tabList/>Management</text>		</g>
		<g id="shape39-184" v:mID="39" v:groupContext="shape" transform="translate(-33.6744,372.967) rotate(-90)">
			<title>Sheet.39</title>
			<path d="M0 411.26 L61.04 411.26" class="st13"/>
		</g>
	</g>
</svg>
